<?xml version="1.0" encoding="UTF-8"?>
<!DOCTYPE svg PUBLIC "-//W3C//DTD SVG 1.1//EN" "http://www.w3.org/Graphics/SVG/1.1/DTD/svg11.dtd">
<!-- Creator: CorelDRAW 2019 (64-Bit) -->
<svg xmlns="http://www.w3.org/2000/svg" xml:space="preserve" width="827px" height="170px" version="1.1" shape-rendering="geometricPrecision" text-rendering="geometricPrecision" image-rendering="optimizeQuality" fill-rule="evenodd" clip-rule="evenodd"
viewBox="0 0 1796.2 369.64"
 xmlns:xlink="http://www.w3.org/1999/xlink">
 <g id="Слой_x0020_1">
  <metadata id="CorelCorpID_0Corel-Layer"/>
  <g id="_1164697568">
   <path fill="#AD0000" d="M360.79 31.71c-11.24,-19.39 -31.2,-31.24 -53.39,-31.69 -0.95,-0.03 -1.9,-0.03 -2.85,0 -22.19,0.45 -42.15,12.3 -53.39,31.69 -11.48,19.82 -11.8,43.63 -0.84,63.69l45.91 84.03c0.02,0.04 0.04,0.08 0.07,0.11 2.02,3.51 5.63,5.61 9.68,5.61 4.04,0 7.66,-2.1 9.68,-5.61 0.02,-0.03 0.04,-0.07 0.06,-0.11l45.91 -84.03c10.96,-20.06 10.65,-43.87 -0.84,-63.69zm-54.81 52.19c-14.36,0 -26.04,-11.68 -26.04,-26.04 0,-14.36 11.68,-26.04 26.04,-26.04 14.35,0 26.03,11.68 26.03,26.04 0,14.36 -11.68,26.04 -26.03,26.04z"/>
  </g>
  <path fill="#806C2B" fill-rule="nonzero" d="M0.01 203.59c1.77,-55.4 24.95,-105.41 61.55,-142 36.88,-36.89 87.41,-60.16 143.35,-61.58 3.06,0.12 5.48,2.39 5.48,5.31l0 16.36c0,3.25 -2.22,5.23 -5.39,5.6 -48.46,1.4 -92.2,21.61 -124.17,53.58 -31.73,31.73 -51.87,75.04 -53.55,123.04 -0.02,2.97 -1.76,6.76 -5.87,6.53l-15.59 0c-4.11,0.12 -5.95,-3.93 -5.81,-6.84z"/>
  <path fill="#A8A8A8" fill-rule="nonzero" d="M202.26 369.61c-40.77,-2.04 -77.51,-19.43 -104.56,-46.48 -28.85,-28.84 -46.69,-68.69 -46.69,-112.7 0,-44.01 17.84,-83.86 46.69,-112.7 27.51,-27.51 65.03,-45.01 106.63,-46.57 2.35,0 5.99,2.32 6.06,5.77l0 15.29c0.31,3.68 -4.13,6.2 -6.36,6.24 -33.95,1.61 -64.55,16.03 -87.06,38.54 -23.91,23.91 -38.7,56.94 -38.7,93.43 0,36.49 14.79,69.52 38.7,93.43 22.2,22.21 52.29,36.55 85.69,38.47 4.07,0.07 8.27,1.57 7.73,6.57l0 14.53c-0.3,4.6 -4.25,6.45 -8.13,6.18z"/>
  <path fill="#71A6F0" fill-rule="nonzero" d="M317.44 218.22c-1.9,26.52 -13.45,50.4 -31.16,68.1 -19.41,19.42 -46.26,31.44 -75.89,31.44 -29.63,0 -56.47,-12.02 -75.89,-31.44 -19.42,-19.41 -31.43,-46.26 -31.43,-75.89 0,-29.63 12.01,-56.47 31.43,-75.89 17.71,-17.7 41.57,-29.26 68.09,-31.16 1.76,-0.13 7.96,0.72 7.8,6.84l0 12.7c0.16,6.49 -5.51,7.66 -7.56,7.8 -19.09,1.78 -36.24,10.28 -49.05,23.09 -14.49,14.49 -23.45,34.51 -23.45,56.62 0,22.12 8.96,42.14 23.45,56.62 14.48,14.49 34.5,23.45 56.61,23.45 22.12,0 42.14,-8.96 56.62,-23.45 12.69,-12.68 21.14,-29.62 23.04,-48.48 0.15,-2.18 0.9,-8.06 5.74,-8.14l16.22 0c5.09,0 5.87,4.04 5.43,7.79z"/>
  <path fill="#DBDBDB" fill-rule="nonzero" d="M539.88 66.4c0.76,0.55 1.38,1.17 1.86,1.9 0.49,0.72 0.73,1.48 0.73,2.24 0,0.97 -0.28,1.8 -0.83,2.49l-5.49 9.12c-1.18,1.66 -2.39,2.48 -3.63,2.48 -0.48,0 -1,-0.13 -1.59,-0.38 -0.59,-0.24 -1.28,-0.62 -2.04,-1.17 -4.97,-3.52 -10.19,-6.22 -15.68,-8.08 -5.49,-1.87 -11.29,-2.97 -17.38,-3.32 -8.91,0 -17.13,1.62 -24.66,4.84 -7.53,3.21 -14.02,7.53 -19.52,12.95 -5.49,5.43 -9.81,11.71 -12.92,18.86 -3.1,7.19 -4.66,14.72 -4.66,22.66 0,8.47 1.59,16.24 4.77,23.42 3.17,7.16 7.46,13.3 12.81,18.52 5.36,5.18 11.57,9.22 18.66,12.12 7.08,2.91 14.51,4.36 22.31,4.36 2.83,0 5.67,-0.21 8.5,-0.62 2.83,-0.42 5.73,-1.15 8.67,-2.15 2.94,-1 5.98,-2.28 9.16,-3.83 3.17,-1.56 6.56,-3.46 10.15,-5.73 1.31,-0.77 2.38,-1.15 3.21,-1.15 1.25,0 2.39,0.87 3.42,2.6l5.91 9.74c0.49,0.89 0.73,1.72 0.73,2.48 0,1.66 -0.83,2.97 -2.49,3.94 -6.5,4.7 -13.65,8.36 -21.45,11.02 -7.81,2.66 -16.24,4.01 -25.29,4.01 -7.32,0 -14.34,-0.94 -21.07,-2.8 -6.74,-1.87 -13.02,-4.53 -18.86,-7.98 -5.84,-3.45 -11.16,-7.6 -15.96,-12.4 -4.8,-4.8 -8.91,-10.12 -12.33,-15.96 -3.42,-5.84 -6.08,-12.16 -7.95,-18.9 -1.86,-6.73 -2.8,-13.74 -2.8,-21.1 0,-7.26 0.94,-14.23 2.8,-20.97 1.87,-6.77 4.53,-13.06 7.98,-18.93 3.45,-5.87 7.6,-11.23 12.4,-16.1 4.8,-4.83 10.12,-8.95 16,-12.36 5.87,-3.42 12.19,-6.09 18.93,-7.99 6.73,-1.9 13.74,-2.86 21.07,-2.86 8.63,0 16.82,1.28 24.56,3.83 7.74,2.56 15.06,6.29 21.97,11.2z"/>
  <path id="1" fill="#DBDBDB" fill-rule="nonzero" d="M590.29 130.34c0,5.45 0.72,10.67 2.14,15.68 1.41,5.01 3.38,9.71 5.94,14.09 2.56,4.39 5.63,8.4 9.22,11.99 3.63,3.59 7.6,6.67 11.99,9.22 4.38,2.56 9.12,4.53 14.13,5.94 5,1.42 10.22,2.15 15.71,2.15 5.39,0 10.61,-0.73 15.65,-2.15 5.05,-1.41 9.74,-3.38 14.1,-5.94 4.35,-2.55 8.32,-5.63 11.95,-9.22 3.59,-3.59 6.67,-7.6 9.22,-11.99 2.56,-4.38 4.53,-9.08 5.94,-14.09 1.42,-5.01 2.15,-10.23 2.15,-15.68 0,-8.16 -1.56,-15.82 -4.67,-22.98 -3.11,-7.15 -7.32,-13.36 -12.64,-18.68 -5.35,-5.32 -11.57,-9.54 -18.72,-12.65 -7.19,-3.11 -14.82,-4.66 -22.98,-4.66 -5.49,0 -10.71,0.69 -15.71,2.11 -5.01,1.41 -9.75,3.42 -14.13,5.97 -4.39,2.56 -8.36,5.63 -11.99,9.23 -3.59,3.59 -6.66,7.56 -9.22,11.91 -2.56,4.36 -4.53,9.05 -5.94,14.1 -1.42,5.04 -2.14,10.26 -2.14,15.65zm59.34 -78.87c7.26,0 14.23,0.93 20.97,2.8 6.77,1.86 13.06,4.53 18.9,7.98 5.83,3.45 11.15,7.57 16.02,12.37 4.84,4.8 8.95,10.15 12.37,16.06 3.42,5.91 6.08,12.26 7.98,19.03 1.9,6.77 2.87,13.82 2.87,21.14 0,7.26 -0.93,14.24 -2.8,20.97 -1.87,6.74 -4.53,13.02 -7.98,18.86 -3.45,5.84 -7.6,11.16 -12.4,15.96 -4.8,4.8 -10.16,8.91 -16.03,12.33 -5.87,3.42 -12.2,6.08 -18.96,7.95 -6.78,1.86 -13.82,2.8 -21.15,2.8 -7.35,0 -14.37,-0.94 -21.1,-2.8 -6.74,-1.87 -13.06,-4.53 -18.89,-7.98 -5.84,-3.45 -11.16,-7.6 -15.97,-12.4 -4.8,-4.8 -8.91,-10.12 -12.33,-15.96 -3.42,-5.84 -6.08,-12.12 -7.94,-18.86 -1.87,-6.74 -2.8,-13.75 -2.8,-21.07 0,-7.26 0.93,-14.27 2.8,-21.01 1.86,-6.73 4.52,-13.02 7.98,-18.89 3.45,-5.87 7.6,-11.23 12.4,-16.06 4.8,-4.84 10.16,-8.99 16.03,-12.4 5.87,-3.42 12.19,-6.09 18.93,-7.99 6.73,-1.9 13.74,-2.83 21.1,-2.83z"/>
  <path id="2" fill="#DBDBDB" fill-rule="nonzero" d="M848.79 200.7c-1.52,0 -2.87,-1.28 -4.04,-3.83l-45.5 -110.06 -12.12 115.96c0,3.05 -1.52,4.57 -4.56,4.57l-10.78 0c-3.18,0 -4.77,-1.52 -4.77,-4.57l16.38 -144.77c0,-1.38 0.51,-2.49 1.55,-3.31 1.04,-0.83 2.18,-1.25 3.42,-1.25l15.96 0c2.21,0 3.73,1.28 4.56,3.84l44.98 109.95 45.39 -109.95c0.34,-1.25 0.89,-2.21 1.65,-2.87 0.77,-0.66 1.63,-0.97 2.6,-0.97l16.47 0c1.45,0 2.59,0.45 3.39,1.35 0.79,0.9 1.17,1.97 1.17,3.21l16.38 144.77c0,3.05 -1.52,4.57 -4.56,4.57l-10.78 0c-3.18,0 -4.77,-1.52 -4.77,-4.57l-12.12 -115.96 -45.7 110.06c-1.18,2.55 -2.56,3.83 -4.15,3.83l-10.05 0z"/>
  <path id="3" fill="#DBDBDB" fill-rule="nonzero" d="M1001.38 143.7c0,6.57 0.96,12.68 2.86,18.35 1.9,5.66 4.7,10.57 8.4,14.75 3.69,4.18 8.19,7.46 13.5,9.84 5.32,2.39 11.4,3.6 18.24,3.6 7.33,0 13.72,-1.21 19.18,-3.63 5.45,-2.42 9.98,-5.73 13.54,-9.92 3.56,-4.18 6.21,-9.08 7.98,-14.75 1.76,-5.66 2.62,-11.74 2.62,-18.24l0 -85.7c0,-1.24 0.49,-2.31 1.42,-3.21 0.93,-0.9 2.07,-1.35 3.45,-1.35l9.95 0c1.31,0 2.52,0.42 3.63,1.25 1.1,0.82 1.66,1.93 1.66,3.31l0 88.57c0,9.33 -1.66,17.9 -4.98,25.67 -3.31,7.77 -7.84,14.44 -13.61,20 -5.77,5.56 -12.5,9.91 -20.21,13.02 -7.7,3.11 -15.92,4.67 -24.63,4.67 -8.7,0 -16.89,-1.66 -24.56,-4.98 -7.67,-3.31 -14.37,-7.88 -20.13,-13.64 -5.77,-5.77 -10.34,-12.51 -13.65,-20.18 -3.32,-7.66 -4.97,-15.85 -4.97,-24.56l0 -88.57c0,-1.03 0.41,-2.04 1.2,-3.04 0.8,-1 1.83,-1.52 3.15,-1.52l11.09 0c1.03,0 2.1,0.45 3.21,1.35 1.1,0.9 1.66,1.97 1.66,3.21l0 85.7z"/>
  <path id="4" fill="#DBDBDB" fill-rule="nonzero" d="M1270.04 207.44c-1.52,0 -2.84,-0.76 -3.94,-2.28l-90.47 -121.32 0 118.97c0,3.04 -1.59,4.56 -4.77,4.56l-10.47 0c-3.04,0 -4.56,-1.52 -4.56,-4.56l0 -144.6c0,-1.38 0.42,-2.52 1.25,-3.42 0.83,-0.9 1.93,-1.35 3.31,-1.35l13.89 0c1.8,0 3.25,0.76 4.35,2.28l88.19 117.28 0 -115.72c0.42,-2.56 1.94,-3.84 4.56,-3.84l10.47 0c1.24,0 2.42,0.42 3.49,1.25 1.07,0.82 1.59,1.93 1.59,3.31l0 144.88c0,3.04 -1.7,4.56 -5.08,4.56l-11.81 0z"/>
  <path id="5" fill="#DBDBDB" fill-rule="nonzero" d="M1336.71 58.42c0,-3.32 1.59,-4.98 4.77,-4.98l48.4 0c7.39,0 14.44,0.9 21.14,2.69 6.7,1.8 12.92,4.36 18.65,7.67 5.74,3.32 10.92,7.33 15.55,12.03 4.63,4.73 8.6,9.91 11.88,15.61 3.28,5.7 5.8,11.85 7.6,18.48 1.79,6.6 2.69,13.47 2.69,20.66 0,7.15 -0.9,13.95 -2.73,20.48 -1.83,6.53 -4.42,12.68 -7.77,18.38 -3.35,5.7 -7.39,10.88 -12.09,15.55 -4.7,4.66 -9.91,8.66 -15.65,11.98 -5.73,3.32 -11.91,5.87 -18.55,7.7 -6.63,1.84 -13.54,2.77 -20.72,2.77l-48.4 0c-1.24,0 -2.35,-0.31 -3.32,-0.9 -0.96,-0.59 -1.45,-1.73 -1.45,-3.46l0 -144.66zm52.65 129.12c8.43,0 16.2,-1.55 23.32,-4.66 7.11,-3.11 13.26,-7.29 18.41,-12.58 5.14,-5.28 9.15,-11.43 12.05,-18.48 2.91,-7.04 4.36,-14.51 4.36,-22.38 0,-8.4 -1.52,-16.07 -4.56,-22.97 -3.04,-6.91 -7.16,-12.82 -12.37,-17.69 -5.22,-4.91 -11.33,-8.71 -18.31,-11.4 -6.98,-2.69 -14.44,-4.04 -22.38,-4.04l-33.27 0 0 114.2 32.75 0z"/>
  <path id="6" fill="#DBDBDB" fill-rule="nonzero" d="M1531.8 143.7c0,6.57 0.96,12.68 2.86,18.35 1.9,5.66 4.7,10.57 8.4,14.75 3.69,4.18 8.18,7.46 13.5,9.84 5.32,2.39 11.4,3.6 18.24,3.6 7.32,0 13.72,-1.21 19.17,-3.63 5.46,-2.42 9.99,-5.73 13.54,-9.92 3.56,-4.18 6.22,-9.08 7.99,-14.75 1.76,-5.66 2.62,-11.74 2.62,-18.24l0 -85.7c0,-1.24 0.48,-2.31 1.42,-3.21 0.93,-0.9 2.07,-1.35 3.45,-1.35l9.95 0c1.31,0 2.52,0.42 3.63,1.25 1.1,0.82 1.65,1.93 1.65,3.31l0 88.57c0,9.33 -1.65,17.9 -4.97,25.67 -3.32,7.77 -7.84,14.44 -13.61,20 -5.77,5.56 -12.51,9.91 -20.21,13.02 -7.7,3.11 -15.92,4.67 -24.63,4.67 -8.7,0 -16.89,-1.66 -24.56,-4.98 -7.67,-3.31 -14.37,-7.88 -20.14,-13.64 -5.77,-5.77 -10.33,-12.51 -13.64,-20.18 -3.32,-7.66 -4.98,-15.85 -4.98,-24.56l0 -88.57c0,-1.03 0.42,-2.04 1.21,-3.04 0.8,-1 1.83,-1.52 3.14,-1.52l11.09 0c1.04,0 2.11,0.45 3.22,1.35 1.1,0.9 1.66,1.97 1.66,3.21l0 85.7z"/>
  <path id="7" fill="#DBDBDB" fill-rule="nonzero" d="M1774.65 87.02c-0.97,-0.62 -2.56,-1.83 -4.77,-3.63 -2.21,-1.79 -4.91,-3.63 -8.12,-5.49 -3.21,-1.87 -6.84,-3.56 -10.84,-5.05 -4.01,-1.48 -8.33,-2.21 -12.96,-2.21 -5.46,0 -10.15,0.66 -14.09,1.97 -3.94,1.32 -7.19,3.04 -9.74,5.22 -2.56,2.18 -4.43,4.63 -5.63,7.36 -1.21,2.73 -1.84,5.49 -1.84,8.25 0,3.87 1.28,7.12 3.84,9.74 2.55,2.63 5.94,4.91 10.15,6.85 4.22,1.93 9.02,3.66 14.37,5.21 5.36,1.55 10.82,3.21 16.38,4.94 5.56,1.73 11.02,3.66 16.37,5.8 5.36,2.15 10.12,4.81 14.37,7.98 4.25,3.18 7.64,6.98 10.19,11.4 2.59,4.42 3.87,9.78 3.87,16.07 0,7.25 -1.52,13.81 -4.52,19.72 -3.04,5.91 -7.16,10.99 -12.4,15.17 -5.22,4.21 -11.37,7.46 -18.42,9.74 -7.04,2.31 -14.61,3.45 -22.69,3.45 -5.39,0 -10.71,-0.62 -15.99,-1.83 -5.29,-1.21 -10.37,-2.97 -15.24,-5.32 -4.87,-2.31 -9.43,-5.15 -13.64,-8.46 -4.22,-3.35 -7.98,-7.15 -11.3,-11.44 -0.9,-1.1 -1.31,-2.21 -1.28,-3.31 0.04,-1.11 0.63,-2.14 1.8,-3.11l8.19 -6.84c1.17,-0.97 2.31,-1.42 3.42,-1.31 1.1,0.1 2.1,0.72 3,1.83l1.35 1.34c2.9,3.25 6.22,6.05 9.91,8.43 3.7,2.38 7.39,4.35 11.09,5.91 3.7,1.55 7.22,2.73 10.61,3.49 3.38,0.76 6.25,1.14 8.6,1.14 4.21,0 8.53,-0.56 12.95,-1.66 4.42,-1.11 8.46,-2.8 12.13,-5.08 3.66,-2.28 6.66,-5.18 9.01,-8.67 2.35,-3.49 3.52,-7.56 3.52,-12.26 0,-3.94 -1.14,-7.29 -3.45,-10.02 -2.31,-2.73 -5.46,-5.11 -9.4,-7.15 -3.93,-2.04 -8.53,-3.87 -13.81,-5.49 -5.29,-1.63 -10.95,-3.32 -16.97,-5.12 -8.28,-2.41 -15.4,-4.97 -21.34,-7.63 -5.94,-2.66 -10.82,-5.59 -14.65,-8.81 -3.83,-3.21 -6.66,-6.8 -8.46,-10.78 -1.8,-3.97 -2.7,-8.42 -2.7,-13.4 0,-6.29 1.28,-12.05 3.8,-17.27 2.53,-5.22 6.08,-9.71 10.71,-13.51 4.63,-3.8 10.23,-6.77 16.76,-8.88 6.52,-2.1 13.81,-3.14 21.9,-3.14 4.35,0 8.87,0.55 13.57,1.66 4.7,1.1 9.29,2.62 13.75,4.59 4.46,1.97 8.64,4.32 12.54,7.05 3.94,2.73 7.29,5.77 10.16,9.09 0.96,1.03 1.48,2.1 1.51,3.24 0.04,1.14 -0.51,2.25 -1.62,3.28l-7.39 7.05c-1.11,1.04 -2.25,1.52 -3.38,1.45 -1.15,-0.07 -2.22,-0.59 -3.18,-1.55z"/>
  <path fill="#71A6F0" fill-rule="nonzero" d="M436.43 271.89c0,-0.98 0.46,-1.47 1.38,-1.47l19.21 0c2.11,0 4.08,0.39 5.92,1.19 1.84,0.79 3.45,1.87 4.82,3.23 1.37,1.36 2.45,2.96 3.23,4.8 0.79,1.85 1.18,3.8 1.18,5.87 0,1.44 -0.19,2.82 -0.59,4.14 -0.4,1.31 -0.95,2.54 -1.66,3.67 -0.72,1.13 -1.56,2.15 -2.54,3.06 -0.99,0.91 -2.07,1.68 -3.27,2.31l8.19 16.09c0.04,0.21 0.11,0.42 0.22,0.63 0.1,0.21 0.16,0.43 0.16,0.66 0,0.63 -0.37,0.94 -1.1,0.94l-7.31 0c-0.75,0 -1.25,-0.39 -1.5,-1.16l-7.62 -15.08c-0.34,0 -0.69,0.01 -1.08,0.03 -0.4,0.02 -0.93,0.03 -1.61,0.03 -0.68,0 -1.58,0 -2.67,0 -1.1,0 -2.52,0 -4.27,0l0 14.83c0,0.9 -0.48,1.35 -1.44,1.35l-6.27 0c-0.42,0 -0.75,-0.12 -1.01,-0.33 -0.25,-0.22 -0.37,-0.56 -0.37,-1.02l0 -43.77zm26.46 13.65c0,-0.89 -0.17,-1.77 -0.5,-2.6 -0.33,-0.85 -0.8,-1.61 -1.42,-2.27 -0.61,-0.67 -1.33,-1.21 -2.16,-1.63 -0.85,-0.42 -1.76,-0.66 -2.74,-0.72 -0.75,-0.02 -1.46,-0.04 -2.17,-0.06 -0.7,-0.01 -1.43,-0.01 -2.18,-0.01l-6.2 0 0 14.55 8.31 0c0.42,0 0.82,0 1.18,0 0.37,0 0.76,-0.02 1.18,-0.06 0.99,-0.06 1.89,-0.29 2.72,-0.69 0.82,-0.4 1.54,-0.92 2.12,-1.58 0.6,-0.66 1.05,-1.41 1.37,-2.25 0.32,-0.84 0.49,-1.74 0.49,-2.68z"/>
  <path id="1" fill="#71A6F0" fill-rule="nonzero" d="M513.57 271.92c0,-1 0.46,-1.5 1.38,-1.5l30.26 0c0.55,0 0.93,0.15 1.16,0.46 0.23,0.3 0.35,0.67 0.35,1.14l0 5.54c0,0.38 -0.13,0.72 -0.39,1.01 -0.26,0.29 -0.66,0.44 -1.18,0.44l-22.29 0 0 9.53 17.18 0c0.42,-0.04 0.75,0.05 1,0.27 0.25,0.22 0.38,0.59 0.38,1.11l0 5.71c0,0.37 -0.11,0.71 -0.32,1 -0.2,0.29 -0.54,0.44 -1,0.44l-17.24 0 0 11.35 23.11 0c0.58,0 0.97,0.12 1.15,0.37 0.19,0.26 0.29,0.64 0.29,1.18l0 5.72c0,0.88 -0.46,1.32 -1.38,1.32l-31.08 0c-0.37,0 -0.7,-0.11 -0.97,-0.31 -0.27,-0.21 -0.41,-0.55 -0.41,-1.01l0 -43.77z"/>
  <path id="2" fill="#71A6F0" fill-rule="nonzero" d="M588.46 271.8c0,-0.38 0.12,-0.7 0.35,-0.98 0.23,-0.27 0.57,-0.4 1.03,-0.4l6.24 0c0.36,0 0.69,0.12 1.01,0.37 0.31,0.25 0.47,0.59 0.47,1.01l0 43.83c0,0.92 -0.5,1.38 -1.48,1.38l-6.24 0c-0.92,0 -1.38,-0.46 -1.38,-1.38l0 -43.83z"/>
  <path id="3" fill="#71A6F0" fill-rule="nonzero" d="M667.77 282.83c-0.27,0 -0.52,-0.07 -0.75,-0.21 -0.23,-0.13 -0.49,-0.31 -0.79,-0.54l-0.06 -0.03c-0.4,-0.4 -0.91,-0.84 -1.54,-1.32 -0.62,-0.48 -1.32,-0.93 -2.1,-1.35 -0.77,-0.42 -1.6,-0.77 -2.48,-1.06 -0.89,-0.3 -1.8,-0.44 -2.72,-0.44 -1.17,0 -2.21,0.13 -3.11,0.4 -0.89,0.26 -1.65,0.61 -2.25,1.06 -0.61,0.45 -1.07,0.97 -1.38,1.58 -0.32,0.62 -0.47,1.27 -0.47,1.96 0,0.75 0.23,1.41 0.7,1.97 0.47,0.56 1.1,1.07 1.91,1.5 0.81,0.44 1.73,0.85 2.77,1.22 1.05,0.36 2.14,0.73 3.29,1.08 1.32,0.4 2.63,0.83 3.91,1.29 1.3,0.46 2.54,0.97 3.72,1.56 1.17,0.57 2.28,1.21 3.3,1.91 1.03,0.7 1.91,1.51 2.65,2.41 0.74,0.91 1.33,1.93 1.75,3.06 0.44,1.12 0.64,2.37 0.64,3.78 0,2.28 -0.46,4.34 -1.38,6.19 -0.92,1.84 -2.18,3.41 -3.8,4.72 -1.62,1.31 -3.52,2.31 -5.71,3.01 -2.18,0.7 -4.54,1.06 -7.04,1.06 -1.61,0 -3.21,-0.19 -4.8,-0.57 -1.59,-0.37 -3.12,-0.91 -4.58,-1.6 -1.46,-0.69 -2.84,-1.52 -4.15,-2.49 -1.3,-0.98 -2.47,-2.06 -3.5,-3.27l0 0.03 -0.06 -0.13c-0.46,-0.52 -0.69,-1 -0.69,-1.44 0,-0.23 0.06,-0.45 0.19,-0.66 0.12,-0.21 0.31,-0.44 0.56,-0.69l1.04 -1.04c0.31,-0.27 0.64,-0.57 1,-0.91 0.35,-0.33 0.71,-0.63 1.06,-0.9 0.36,-0.27 0.7,-0.51 1,-0.69 0.3,-0.19 0.54,-0.28 0.73,-0.28 0.29,0 0.56,0.09 0.82,0.28 0.25,0.18 0.45,0.36 0.62,0.53l0.13 0.13 -0.03 0c0.73,0.69 1.55,1.34 2.46,1.97 0.91,0.63 1.84,1.18 2.81,1.67 0.96,0.49 1.92,0.88 2.87,1.16 0.95,0.29 1.84,0.43 2.67,0.43 1.15,0 2.23,-0.14 3.23,-0.44 1.01,-0.29 1.88,-0.71 2.61,-1.24 0.73,-0.53 1.3,-1.17 1.72,-1.94 0.42,-0.75 0.63,-1.58 0.63,-2.5 0,-0.92 -0.27,-1.72 -0.82,-2.38 -0.54,-0.65 -1.25,-1.23 -2.13,-1.72 -0.88,-0.49 -1.86,-0.92 -2.96,-1.28 -1.09,-0.35 -2.2,-0.69 -3.31,-1 -2.55,-0.77 -4.78,-1.61 -6.69,-2.51 -1.91,-0.9 -3.51,-1.91 -4.79,-3.03 -1.27,-1.12 -2.22,-2.38 -2.86,-3.77 -0.64,-1.39 -0.96,-2.96 -0.96,-4.7 0,-1.94 0.4,-3.72 1.18,-5.32 0.78,-1.6 1.9,-2.97 3.34,-4.11 1.46,-1.14 3.19,-2.03 5.23,-2.67 2.03,-0.64 4.3,-0.96 6.8,-0.96 1.91,0 3.84,0.29 5.8,0.89 1.97,0.6 3.79,1.42 5.46,2.46 0.5,0.32 1.02,0.67 1.54,1.07 0.52,0.4 1,0.8 1.44,1.2 0.44,0.41 0.8,0.81 1.09,1.2 0.28,0.38 0.41,0.72 0.41,0.99 0,0.25 -0.06,0.5 -0.18,0.76 -0.13,0.26 -0.29,0.5 -0.47,0.71l-0.95 1.01 0 -0.04c-0.31,0.34 -0.63,0.68 -0.97,1.04 -0.33,0.35 -0.67,0.67 -1,0.95 -0.34,0.28 -0.64,0.52 -0.91,0.71 -0.27,0.19 -0.5,0.28 -0.69,0.28z"/>
  <path id="4" fill="#71A6F0" fill-rule="nonzero" d="M716.16 271.92c0,-1 0.46,-1.5 1.38,-1.5l30.26 0c0.55,0 0.93,0.15 1.16,0.46 0.23,0.3 0.35,0.67 0.35,1.14l0 5.54c0,0.38 -0.13,0.72 -0.39,1.01 -0.26,0.29 -0.66,0.44 -1.18,0.44l-22.29 0 0 9.53 17.18 0c0.42,-0.04 0.75,0.05 1,0.27 0.25,0.22 0.38,0.59 0.38,1.11l0 5.71c0,0.37 -0.11,0.71 -0.32,1 -0.2,0.29 -0.54,0.44 -1,0.44l-17.24 0 0 11.35 23.11 0c0.58,0 0.97,0.12 1.15,0.37 0.19,0.26 0.29,0.64 0.29,1.18l0 5.72c0,0.88 -0.46,1.32 -1.38,1.32l-31.08 0c-0.37,0 -0.7,-0.11 -0.97,-0.31 -0.27,-0.21 -0.41,-0.55 -0.41,-1.01l0 -43.77z"/>
  <path id="5" fill="#71A6F0" fill-rule="nonzero" d="M791.05 271.83c0,-0.4 0.13,-0.73 0.37,-1.01 0.24,-0.27 0.57,-0.4 1.01,-0.4l7.21 0c0.3,0 0.57,0.06 0.83,0.19 0.26,0.14 0.5,0.36 0.71,0.65 3.57,5.1 7.11,10.17 10.61,15.21 3.51,5.03 7.06,10.1 10.62,15.2l0 -30.06c0.06,-0.38 0.22,-0.67 0.47,-0.88 0.25,-0.21 0.55,-0.31 0.91,-0.31l6.05 0c0.42,0 0.79,0.12 1.09,0.37 0.3,0.25 0.45,0.59 0.45,1.01l0 43.93c0,0.85 -0.5,1.28 -1.48,1.28l-6.79 0c-0.46,0 -0.89,-0.28 -1.29,-0.85 -3.68,-5.33 -7.33,-10.66 -10.98,-15.99 -3.64,-5.32 -7.29,-10.66 -10.94,-16.01l0 31.47c0,0.46 -0.11,0.81 -0.33,1.03 -0.22,0.23 -0.59,0.35 -1.12,0.35l-6.02 0c-0.48,0 -0.82,-0.13 -1.04,-0.37 -0.22,-0.24 -0.34,-0.56 -0.34,-0.98l0 -43.83z"/>
  <path id="6" fill="#71A6F0" fill-rule="nonzero" d="M923.01 298.07c0,1.76 0.25,3.34 0.75,4.74 0.5,1.4 1.22,2.58 2.12,3.55 0.93,0.97 2.01,1.71 3.28,2.22 1.27,0.52 2.68,0.78 4.23,0.78 1.63,0 3.1,-0.27 4.4,-0.82 1.31,-0.54 2.39,-1.31 3.29,-2.31 0.89,-0.99 1.57,-2.18 2.04,-3.57 0.47,-1.39 0.71,-2.92 0.71,-4.59l0 -26.27c0,-0.38 0.14,-0.7 0.41,-0.98 0.27,-0.27 0.62,-0.4 1.03,-0.4l6.09 0c0.44,0 0.81,0.13 1.11,0.4 0.31,0.28 0.46,0.6 0.46,0.98l0 26.64c0,3.24 -0.53,6.07 -1.57,8.48 -1.05,2.42 -2.46,4.44 -4.24,6.04 -1.77,1.61 -3.84,2.82 -6.2,3.61 -2.37,0.8 -4.86,1.19 -7.5,1.19 -2.63,0 -5.13,-0.43 -7.49,-1.27 -2.37,-0.85 -4.43,-2.08 -6.21,-3.71 -1.78,-1.63 -3.19,-3.66 -4.24,-6.06 -1.04,-2.41 -1.56,-5.17 -1.56,-8.28l0 -26.64c0,-0.34 0.11,-0.65 0.35,-0.95 0.24,-0.29 0.55,-0.43 0.92,-0.43l6.36 0c0.31,0 0.63,0.13 0.96,0.4 0.33,0.28 0.5,0.6 0.5,0.98l0 26.27z"/>
  <path id="7" fill="#71A6F0" fill-rule="nonzero" d="M995.83 271.83c0,-0.4 0.12,-0.73 0.36,-1.01 0.24,-0.27 0.58,-0.4 1.02,-0.4l7.21 0c0.29,0 0.56,0.06 0.82,0.19 0.27,0.14 0.51,0.36 0.72,0.65 3.56,5.1 7.1,10.17 10.6,15.21 3.52,5.03 7.06,10.1 10.62,15.2l0 -30.06c0.07,-0.38 0.22,-0.67 0.47,-0.88 0.26,-0.21 0.56,-0.31 0.91,-0.31l6.06 0c0.41,0 0.78,0.12 1.08,0.37 0.31,0.25 0.45,0.59 0.45,1.01l0 43.93c0,0.85 -0.49,1.28 -1.47,1.28l-6.8 0c-0.46,0 -0.88,-0.28 -1.28,-0.85 -3.68,-5.33 -7.34,-10.66 -10.99,-15.99 -3.64,-5.32 -7.28,-10.66 -10.94,-16.01l0 31.47c0,0.46 -0.11,0.81 -0.32,1.03 -0.22,0.23 -0.6,0.35 -1.12,0.35l-6.02 0c-0.48,0 -0.83,-0.13 -1.05,-0.37 -0.22,-0.24 -0.33,-0.56 -0.33,-0.98l0 -43.83z"/>
  <path id="8" fill="#71A6F0" fill-rule="nonzero" d="M1119.76 293.75c0,2.19 -0.29,4.27 -0.85,6.27 -0.56,1.99 -1.36,3.86 -2.38,5.59 -1.03,1.72 -2.26,3.28 -3.69,4.69 -1.43,1.4 -3.03,2.59 -4.79,3.58 -1.75,1 -3.65,1.77 -5.66,2.31 -2.02,0.55 -4.13,0.82 -6.33,0.82l-15.06 0c-0.38,0 -0.71,-0.08 -1,-0.25 -0.3,-0.17 -0.44,-0.52 -0.44,-1.07l0 -43.8c0,-0.98 0.48,-1.47 1.44,-1.47l15.06 0c3.33,0 6.43,0.6 9.3,1.8 2.89,1.21 5.39,2.86 7.52,4.96 2.14,2.1 3.81,4.56 5.04,7.4 1.22,2.84 1.84,5.89 1.84,9.17zm-31.11 -14.74l0 29.41 2.97 0c1.57,0 3.12,-0.03 4.69,-0.09 2.06,-0.07 3.98,-0.5 5.72,-1.28 1.76,-0.78 3.27,-1.84 4.56,-3.16 1.27,-1.31 2.27,-2.86 3,-4.63 0.72,-1.78 1.07,-3.68 1.07,-5.7 0,-2.16 -0.38,-4.13 -1.17,-5.93 -0.78,-1.79 -1.85,-3.32 -3.21,-4.6 -1.34,-1.27 -2.93,-2.27 -4.75,-2.97 -1.81,-0.7 -3.74,-1.05 -5.78,-1.05l-7.1 0z"/>
  <path id="9" fill="#71A6F0" fill-rule="nonzero" d="M1201.11 271.92c0,-1 0.46,-1.5 1.38,-1.5l30.25 0c0.55,0 0.93,0.15 1.17,0.46 0.22,0.3 0.34,0.67 0.34,1.14l0 5.54c0,0.38 -0.13,0.72 -0.39,1.01 -0.26,0.29 -0.65,0.44 -1.18,0.44l-22.29 0 0 9.53 17.18 0c0.42,-0.04 0.75,0.05 1,0.27 0.26,0.22 0.38,0.59 0.38,1.11l0 5.71c0,0.37 -0.1,0.71 -0.31,1 -0.21,0.29 -0.55,0.44 -1.01,0.44l-17.24 0 0 11.35 23.11 0c0.58,0 0.97,0.12 1.16,0.37 0.19,0.26 0.28,0.64 0.28,1.18l0 5.72c0,0.88 -0.46,1.32 -1.38,1.32l-31.07 0c-0.38,0 -0.7,-0.11 -0.98,-0.31 -0.27,-0.21 -0.4,-0.55 -0.4,-1.01l0 -43.77z"/>
  <path id="10" fill="#71A6F0" fill-rule="nonzero" d="M1289.76 316.1c-0.23,-0.44 -0.44,-0.89 -0.63,-1.34 -0.19,-0.45 -0.37,-0.91 -0.56,-1.39l-16.46 -41.26c0,-0.06 -0.01,-0.15 -0.04,-0.26 -0.03,-0.12 -0.06,-0.26 -0.06,-0.43 0,-0.67 0.43,-1 1.29,-1l6.71 0c0.79,0 1.34,0.39 1.63,1.19 0.46,1.31 1.02,2.86 1.68,4.63 0.66,1.76 1.36,3.64 2.1,5.61 0.75,1.98 1.51,4 2.29,6.07 0.79,2.07 1.55,4.08 2.29,6.02 0.74,1.96 1.43,3.78 2.07,5.48 0.64,1.7 1.17,3.17 1.61,4.38 0.46,-1.21 1,-2.68 1.63,-4.38 0.63,-1.7 1.31,-3.52 2.03,-5.48 0.72,-1.94 1.46,-3.95 2.24,-6.02 0.77,-2.07 1.52,-4.09 2.25,-6.07 0.74,-1.97 1.44,-3.85 2.09,-5.61 0.66,-1.77 1.22,-3.32 1.71,-4.63 0.29,-0.8 0.85,-1.19 1.69,-1.19l6.58 0c0.94,0 1.42,0.34 1.42,1.03 0,0.15 -0.01,0.28 -0.05,0.41 -0.03,0.12 -0.05,0.21 -0.05,0.25l-16.43 41.26c-0.17,0.42 -0.33,0.84 -0.5,1.27 -0.17,0.43 -0.36,0.84 -0.57,1.24 -0.29,0.55 -0.68,0.87 -1.15,0.97 -0.49,0.11 -1.06,0.16 -1.73,0.16l-3.61 0c-0.48,0 -0.81,-0.09 -1.01,-0.28 -0.2,-0.19 -0.35,-0.4 -0.46,-0.63z"/>
  <path id="11" fill="#71A6F0" fill-rule="nonzero" d="M1355.08 271.92c0,-1 0.46,-1.5 1.38,-1.5l30.26 0c0.54,0 0.93,0.15 1.16,0.46 0.23,0.3 0.34,0.67 0.34,1.14l0 5.54c0,0.38 -0.12,0.72 -0.38,1.01 -0.26,0.29 -0.66,0.44 -1.18,0.44l-22.3 0 0 9.53 17.19 0c0.41,-0.04 0.75,0.05 1,0.27 0.25,0.22 0.37,0.59 0.37,1.11l0 5.71c0,0.37 -0.1,0.71 -0.31,1 -0.21,0.29 -0.54,0.44 -1,0.44l-17.25 0 0 11.35 23.11 0c0.59,0 0.98,0.12 1.16,0.37 0.19,0.26 0.28,0.64 0.28,1.18l0 5.72c0,0.88 -0.45,1.32 -1.38,1.32l-31.07 0c-0.38,0 -0.7,-0.11 -0.97,-0.31 -0.27,-0.21 -0.41,-0.55 -0.41,-1.01l0 -43.77z"/>
  <path id="12" fill="#71A6F0" fill-rule="nonzero" d="M1429.97 271.83c0,-0.4 0.13,-0.73 0.37,-1.01 0.24,-0.27 0.57,-0.4 1.01,-0.4l7.21 0c0.29,0 0.57,0.06 0.83,0.19 0.26,0.14 0.5,0.36 0.71,0.65 3.56,5.1 7.11,10.17 10.61,15.21 3.51,5.03 7.05,10.1 10.62,15.2l0 -30.06c0.06,-0.38 0.22,-0.67 0.47,-0.88 0.25,-0.21 0.55,-0.31 0.91,-0.31l6.05 0c0.42,0 0.78,0.12 1.09,0.37 0.3,0.25 0.44,0.59 0.44,1.01l0 43.93c0,0.85 -0.49,1.28 -1.47,1.28l-6.79 0c-0.46,0 -0.89,-0.28 -1.29,-0.85 -3.68,-5.33 -7.34,-10.66 -10.98,-15.99 -3.64,-5.32 -7.29,-10.66 -10.95,-16.01l0 31.47c0,0.46 -0.1,0.81 -0.32,1.03 -0.22,0.23 -0.6,0.35 -1.12,0.35l-6.02 0c-0.48,0 -0.82,-0.13 -1.04,-0.37 -0.22,-0.24 -0.34,-0.56 -0.34,-0.98l0 -43.83z"/>
  <path id="13" fill="#71A6F0" fill-rule="nonzero" d="M1510.97 271.8c0,-0.42 0.14,-0.76 0.41,-1.01 0.27,-0.25 0.62,-0.37 1.04,-0.37l32.95 0c0.38,0 0.72,0.11 1.02,0.34 0.31,0.23 0.47,0.57 0.52,1.04l0 5.5c0,0.43 -0.13,0.8 -0.39,1.11 -0.26,0.31 -0.65,0.47 -1.15,0.47l-11.91 0 0 36.69c0,0.37 -0.13,0.71 -0.39,1 -0.26,0.29 -0.63,0.44 -1.09,0.44l-6.14 0c-0.38,0 -0.72,-0.14 -1.03,-0.41 -0.3,-0.27 -0.45,-0.61 -0.45,-1.03l0 -36.69 -11.94 0c-0.42,0 -0.77,-0.13 -1.04,-0.39 -0.27,-0.27 -0.41,-0.65 -0.41,-1.19l0 -5.5z"/>
  <path id="14" fill="#71A6F0" fill-rule="nonzero" d="M1614.36 282.83c-0.27,0 -0.52,-0.07 -0.75,-0.21 -0.23,-0.13 -0.49,-0.31 -0.78,-0.54l-0.07 -0.03c-0.39,-0.4 -0.91,-0.84 -1.53,-1.32 -0.63,-0.48 -1.33,-0.93 -2.1,-1.35 -0.78,-0.42 -1.6,-0.77 -2.49,-1.06 -0.89,-0.3 -1.8,-0.44 -2.72,-0.44 -1.17,0 -2.2,0.13 -3.1,0.4 -0.9,0.26 -1.65,0.61 -2.26,1.06 -0.61,0.45 -1.07,0.97 -1.38,1.58 -0.31,0.62 -0.47,1.27 -0.47,1.96 0,0.75 0.23,1.41 0.7,1.97 0.47,0.56 1.11,1.07 1.91,1.5 0.81,0.44 1.73,0.85 2.77,1.22 1.05,0.36 2.14,0.73 3.29,1.08 1.32,0.4 2.63,0.83 3.91,1.29 1.3,0.46 2.54,0.97 3.72,1.56 1.18,0.57 2.28,1.21 3.31,1.91 1.02,0.7 1.9,1.51 2.64,2.41 0.74,0.91 1.33,1.93 1.76,3.06 0.43,1.12 0.63,2.37 0.63,3.78 0,2.28 -0.45,4.34 -1.37,6.19 -0.93,1.84 -2.19,3.41 -3.81,4.72 -1.62,1.31 -3.52,2.31 -5.7,3.01 -2.19,0.7 -4.54,1.06 -7.05,1.06 -1.61,0 -3.21,-0.19 -4.8,-0.57 -1.59,-0.37 -3.11,-0.91 -4.57,-1.6 -1.47,-0.69 -2.85,-1.52 -4.16,-2.49 -1.3,-0.98 -2.47,-2.06 -3.5,-3.27l0 0.03 -0.06 -0.13c-0.46,-0.52 -0.69,-1 -0.69,-1.44 0,-0.23 0.06,-0.45 0.19,-0.66 0.13,-0.21 0.31,-0.44 0.56,-0.69l1.04 -1.04c0.31,-0.27 0.65,-0.57 1,-0.91 0.36,-0.33 0.71,-0.63 1.07,-0.9 0.35,-0.27 0.69,-0.51 0.99,-0.69 0.3,-0.19 0.54,-0.28 0.73,-0.28 0.29,0 0.57,0.09 0.82,0.28 0.25,0.18 0.46,0.36 0.63,0.53l0.12 0.13 -0.03 0c0.73,0.69 1.56,1.34 2.46,1.97 0.91,0.63 1.85,1.18 2.81,1.67 0.96,0.49 1.92,0.88 2.87,1.16 0.95,0.29 1.84,0.43 2.68,0.43 1.15,0 2.22,-0.14 3.23,-0.44 1,-0.29 1.87,-0.71 2.6,-1.24 0.73,-0.53 1.3,-1.17 1.72,-1.94 0.42,-0.75 0.63,-1.58 0.63,-2.5 0,-0.92 -0.27,-1.72 -0.82,-2.38 -0.54,-0.65 -1.25,-1.23 -2.13,-1.72 -0.88,-0.49 -1.86,-0.92 -2.95,-1.28 -1.1,-0.35 -2.21,-0.69 -3.32,-1 -2.55,-0.77 -4.77,-1.61 -6.69,-2.51 -1.91,-0.9 -3.51,-1.91 -4.78,-3.03 -1.28,-1.12 -2.23,-2.38 -2.87,-3.77 -0.64,-1.39 -0.96,-2.96 -0.96,-4.7 0,-1.94 0.4,-3.72 1.18,-5.32 0.78,-1.6 1.9,-2.97 3.35,-4.11 1.45,-1.14 3.18,-2.03 5.22,-2.67 2.03,-0.64 4.3,-0.96 6.81,-0.96 1.9,0 3.83,0.29 5.8,0.89 1.96,0.6 3.78,1.42 5.45,2.46 0.5,0.32 1.02,0.67 1.54,1.07 0.52,0.4 1,0.8 1.44,1.2 0.44,0.41 0.81,0.81 1.09,1.2 0.28,0.38 0.42,0.72 0.42,0.99 0,0.25 -0.07,0.5 -0.19,0.76 -0.13,0.26 -0.29,0.5 -0.47,0.71l-0.94 1.01 0 -0.04c-0.32,0.34 -0.64,0.68 -0.97,1.04 -0.34,0.35 -0.67,0.67 -1.01,0.95 -0.33,0.28 -0.64,0.52 -0.91,0.71 -0.27,0.19 -0.5,0.28 -0.69,0.28z"/>
 </g>
</svg>
