<svg xmlns="http://www.w3.org/2000/svg" width="219" height="45" shape-rendering="geometricPrecision" text-rendering="geometricPrecision" image-rendering="optimizeQuality" fill-rule="evenodd" clip-rule="evenodd" viewBox="0 0 1093.59 224.04"><path fill="#CCC" d="M156.69 11.85zM153 13.32zM149.48 14.8c.95-.41 1.91-.81 2.87-1.21-.96.4-1.92.8-2.87 1.21zM146.45 16.15c.94-.42 1.88-.85 2.82-1.26-.94.41-1.88.84-2.82 1.26zM143.18 17.67c.9-.43 1.8-.85 2.72-1.27-.91.42-1.82.84-2.72 1.27zM139.91 19.27zM133.76 22.5zM130.98 24.07zM124.82 27.77c.77-.48 1.54-.96 2.32-1.43-.78.47-1.55.95-2.32 1.43zM122.16 29.49l1.98-1.29-1.98 1.29zM119.33 31.39c.75-.51 1.5-1.02 2.26-1.53-.76.51-1.51 1.02-2.26 1.53zM116.4 33.45zM113.94 35.26zM111.24 37.33c.71-.56 1.43-1.11 2.15-1.66-.72.55-1.44 1.1-2.15 1.66zM108.76 39.32zM106.41 41.29zM103.84 43.54zM101.7 45.5zM99.3 47.79c.56-.54 1.12-1.08 1.68-1.61-.56.53-1.12 1.07-1.68 1.61zM96.97 50.14c.58-.59 1.16-1.18 1.75-1.77-.59.59-1.17 1.18-1.75 1.77zM95.05 52.17c.44-.48.89-.95 1.34-1.42l-1.34 1.42zM92.84 54.6c.55-.61 1.1-1.23 1.66-1.84-.56.61-1.11 1.23-1.66 1.84zM90.72 57.07zM88.98 59.2c.46-.57.91-1.13 1.38-1.69-.47.56-.92 1.13-1.38 1.69zM87.1 61.62zM85.43 63.89l1.14-1.56-1.14 1.56zM83.74 66.31zM81.99 68.98c.41-.66.84-1.31 1.27-1.95-.43.65-.86 1.29-1.27 1.95zM80.53 71.34zM79.1 73.8zM77.66 76.45c.33-.63.67-1.25 1.01-1.87-.35.62-.68 1.24-1.01 1.87zM76.43 78.89zM75.21 81.48c.31-.68.62-1.37.95-2.05-.33.68-.64 1.37-.95 2.05zM74 84.28zM101.81 60.2c-.24.4-.47.8-.7 1.2.23-.4.46-.8.7-1.2zM113.05 45.48zM116.02 42.46c-.33.32-.64.63-.96.95.32-.32.63-.63.96-.95zM118.4 40.21c-.74.68-1.46 1.37-2.17 2.05.71-.68 1.43-1.37 2.17-2.05zM128.7 31.79zM136.99 26.14zM142.18 23zM163.54 12.53c-7.52 3.11-14.58 6.57-21.12 10.34 6.54-3.77 13.6-7.23 21.12-10.34zM159.79 10.67l-.06.03z"/><path fill="#5FA6D6" d="M67.84 109.77H0c.06-3.1.25-6.17.56-9.21h68.51c-.59 3.05-1 6.12-1.23 9.21zm96.94 101.1c-15.72 8.4-33.69 13.17-52.76 13.17-25.22 0-48.49-8.33-67.21-22.39h90.54c9.18 3.83 19.04 6.93 29.43 9.22zm-57.61-24.81H27.94c-3.95-4.49-7.54-9.28-10.74-14.35h73.61c4.83 5.18 10.31 9.97 16.36 14.35zm-27.02-28.1H9.8c-1.91-4.25-3.57-8.64-4.95-13.16h68.51c1.85 4.55 4.12 8.95 6.79 13.16zm-10.73-25.82H1.78c-.7-3.82-1.2-7.71-1.49-11.66h67.49c.09 1.54.23 3.09.42 4.65.29 2.37.71 4.71 1.22 7.01z"/><path fill="#5CD44A" d="M223.48 100.56c.31 3.04.5 6.11.56 9.21H98.72a49.625 49.625 0 01-3.51-9.21h128.27zm-4.29 44.24c-1.44 4.71-3.24 9.65-5.4 14.08-7.03.01-13.9-.3-20.58-.92h-.01c-20.04-1.84-38.29-6.4-53.55-13.16h79.54zm4.57-24.32c-.3 3.95-.8 7.84-1.5 11.66H117.94c-4.68-3.59-8.78-7.49-12.22-11.66h118.04z"/><path fill="#CCC" d="M73.06 86.65l.69-1.77-.69 1.77zM72.09 89.33c.24-.68.48-1.36.73-2.03-.25.67-.49 1.35-.73 2.03zM71.16 92.19z"/><path fill="#C7E3FC" d="M112.02 0c17.09 0 33.29 3.83 47.78 10.67-44.94 16.54-78.11 46.99-88.64 81.53-53.7-11.04-5.46-17.17-69.13 0h-.3C11.1 39.79 56.91 0 112.02 0zm51.53 12.53c30.33 15.74 52.55 44.92 58.76 79.67h-.02c-13.76-12.19-26.84-26.25-32.46-22.39-3.59 2.46-29.95 13.21-35.94 14.2-6 .99-23.39-2.83-33.67-4.67-3.84-.69-12.39 8.24-26.48 12.86-2.61-31.08 25.81-61.51 69.81-79.67z"/><g fill-rule="nonzero"><path fill="#5CD44A" d="M321.76 170c.22-.42.53-.87.93-1.35.41-.49.89-.94 1.47-1.35a8.75 8.75 0 011.97-1.04c.74-.28 1.55-.42 2.43-.42.97 0 1.85.04 2.63.12.78.08 1.52.23 2.22.43.71.21 1.39.49 2.04.84.66.35 1.34.8 2.06 1.34.22.16.46.37.72.62.26.25.39.55.39.89 0 .2-.05.38-.14.54l-1.59 2.45c-.25.31-.5.46-.75.46-.15 0-.28-.05-.41-.15-.12-.1-.28-.21-.46-.33-1.11-.76-2.19-1.32-3.24-1.67a10.6 10.6 0 00-3.36-.52c-.9 0-1.77.17-2.59.51-.83.35-1.56.83-2.2 1.47-.64.64-1.15 1.42-1.54 2.35-.38.92-.58 1.98-.58 3.14v21.13c0 .79-.4 1.18-1.19 1.18h-2.8c-.83 0-1.24-.39-1.24-1.18v-31.89c0-.36.11-.65.35-.86.23-.22.51-.33.83-.33h2.81c.38 0 .68.12.91.35.22.24.33.52.33.84V170zM382.61 192.79c.16-.14.34-.27.53-.4s.38-.19.58-.19c.27 0 .53.16.78.49.36.48.65.88.88 1.18.22.31.4.55.55.73.14.2.25.34.32.43.09.11.16.22.22.34.05.11.08.25.08.39 0 .2-.07.42-.23.64-.15.22-.42.48-.8.8-.77.61-1.57 1.17-2.41 1.66-.83.5-1.71.93-2.63 1.29-.92.37-1.88.65-2.9.85-1.01.19-2.09.29-3.23.29-1.6 0-3.14-.21-4.64-.64a17.64 17.64 0 01-4.21-1.8c-1.33-.79-2.53-1.72-3.62-2.8a18.449 18.449 0 01-2.82-3.59c-.79-1.32-1.4-2.72-1.84-4.23a17.02 17.02 0 01-.64-4.69c0-1.62.21-3.19.61-4.7.4-1.51.98-2.92 1.73-4.25a16.83 16.83 0 012.7-3.58c1.06-1.08 2.26-2.02 3.58-2.79a17.74 17.74 0 014.29-1.79c1.54-.42 3.16-.64 4.86-.64 1.35 0 2.69.15 4.02.46 1.33.3 2.61.75 3.83 1.34 1.23.58 2.38 1.3 3.45 2.17 1.07.87 2.02 1.86 2.87 2.97 1.15 1.55 2 3.32 2.56 5.3s.82 4.25.78 6.83c0 .85-.39 1.27-1.18 1.27h-28.44c.31 1.44.85 2.77 1.61 3.99.77 1.23 1.68 2.29 2.75 3.19 1.07.91 2.26 1.62 3.57 2.14 1.32.51 2.67.77 4.08.77.99 0 1.88-.1 2.68-.29.81-.19 1.53-.44 2.19-.75.66-.32 1.26-.68 1.82-1.08.55-.41 1.09-.82 1.61-1.25l.06-.06zm-14.78-19.96c-1.37.92-2.55 2.07-3.54 3.46-.99 1.4-1.66 2.93-2.02 4.61h24.39c-.2-1.5-.66-2.85-1.39-4.08a11.43 11.43 0 00-2.74-3.13 12.78 12.78 0 00-3.71-2.01c-1.37-.48-2.8-.71-4.28-.71-1.17 0-2.32.15-3.46.46-1.14.3-2.23.77-3.25 1.4zM418.02 199.46c0 .79-.39 1.18-1.18 1.18h-2.78c-.85 0-1.27-.39-1.27-1.18v-31.89c0-.36.11-.65.35-.86.23-.22.51-.33.84-.33h2.8c.38 0 .68.12.91.35.22.24.33.52.33.84v31.89zm0-39.29c0 .8-.39 1.2-1.18 1.2h-2.78c-.85 0-1.27-.4-1.27-1.2v-2.79c0-.37.11-.65.35-.87.23-.22.51-.32.84-.32h2.8c.38 0 .68.11.91.34.22.22.33.5.33.85v2.79zM437.9 193.95c-.09-.27-.16-.49-.19-.66a.678.678 0 01.02-.43c.04-.12.11-.22.21-.31.1-.09.23-.18.41-.27l2.56-1.19c.45-.18.8-.16 1.05.07.25.22.45.5.59.82.27.71.7 1.32 1.28 1.85.58.53 1.21.97 1.9 1.31.67.34 1.36.6 2.07.77.7.17 1.3.26 1.8.26.68 0 1.43-.1 2.26-.3.82-.2 1.6-.5 2.32-.92.73-.41 1.34-.95 1.84-1.61.49-.65.73-1.43.73-2.33 0-.97-.23-1.75-.7-2.34-.47-.6-1.07-1.09-1.82-1.48-.74-.38-1.58-.69-2.5-.92-.93-.24-1.85-.48-2.76-.73-1.62-.43-3.06-.97-4.32-1.59-1.27-.62-2.35-1.34-3.24-2.15a8.518 8.518 0 01-2.03-2.81c-.47-1.05-.7-2.23-.7-3.54 0-1.44.28-2.75.83-3.94.56-1.19 1.34-2.2 2.33-3.05 1-.84 2.2-1.5 3.58-1.97 1.4-.47 2.93-.7 4.62-.7 1.39 0 2.58.13 3.57.38 1 .25 1.88.62 2.66 1.11.77.5 1.48 1.11 2.13 1.84.65.73 1.32 1.57 2.02 2.52.22.36.33.67.35.93.02.26-.14.52-.48.77l-2.11 1.59c-.41.24-.73.3-.94.19-.22-.1-.45-.31-.7-.62-.42-.48-.82-.95-1.22-1.4-.39-.45-.83-.85-1.34-1.2-.5-.36-1.08-.63-1.71-.84-.63-.21-1.4-.31-2.27-.31-.79 0-1.56.09-2.29.27-.74.18-1.4.47-1.98.87-.59.39-1.05.89-1.41 1.49-.35.6-.52 1.32-.52 2.15 0 .63.22 1.2.65 1.73.43.53.98 1.02 1.65 1.45.66.43 1.38.8 2.17 1.11.79.3 1.56.55 2.3.73 1.7.39 3.26.9 4.67 1.51 1.4.61 2.62 1.34 3.63 2.18.99.85 1.78 1.83 2.33 2.95.56 1.13.84 2.4.84 3.82 0 1.57-.31 2.97-.93 4.22a9.16 9.16 0 01-2.59 3.18c-1.09.88-2.41 1.55-3.93 2.02-1.53.47-3.19.7-4.99.7-1.13 0-2.29-.14-3.48-.43s-2.32-.73-3.38-1.32a12.15 12.15 0 01-2.87-2.24 8.79 8.79 0 01-1.97-3.19zM506.44 192.79c.16-.14.34-.27.53-.4.18-.13.37-.19.57-.19.27 0 .53.16.78.49.36.48.66.88.89 1.18.22.31.4.55.54.73.15.2.26.34.33.43.09.11.16.22.21.34.06.11.08.25.08.39 0 .2-.07.42-.22.64-.15.22-.42.48-.8.8-.77.61-1.58 1.17-2.41 1.66-.84.5-1.72.93-2.64 1.29-.91.37-1.87.65-2.89.85-1.02.19-2.1.29-3.23.29-1.6 0-3.15-.21-4.64-.64-1.49-.42-2.89-1.02-4.22-1.8-1.32-.79-2.52-1.72-3.61-2.8a18.889 18.889 0 01-2.83-3.59c-.79-1.32-1.4-2.72-1.83-4.23-.43-1.51-.65-3.07-.65-4.69 0-1.62.21-3.19.61-4.7.41-1.51.99-2.92 1.73-4.25.75-1.31 1.65-2.51 2.71-3.58 1.06-1.08 2.26-2.02 3.58-2.79a17.74 17.74 0 014.29-1.79c1.53-.42 3.15-.64 4.86-.64 1.35 0 2.69.15 4.02.46 1.33.3 2.61.75 3.83 1.34 1.22.58 2.37 1.3 3.45 2.17a17.5 17.5 0 012.86 2.97c1.15 1.55 2.01 3.32 2.57 5.3.55 1.98.82 4.25.78 6.83 0 .85-.4 1.27-1.19 1.27h-28.43c.3 1.44.84 2.77 1.61 3.99.76 1.23 1.68 2.29 2.75 3.19 1.07.91 2.26 1.62 3.57 2.14 1.31.51 2.67.77 4.07.77.99 0 1.89-.1 2.69-.29.8-.19 1.53-.44 2.19-.75.65-.32 1.25-.68 1.81-1.08.56-.41 1.1-.82 1.62-1.25l.06-.06zm-14.79-19.96c-1.36.92-2.54 2.07-3.53 3.46-.99 1.4-1.67 2.93-2.03 4.61h24.39c-.2-1.5-.65-2.85-1.38-4.08-.73-1.22-1.65-2.26-2.74-3.13a12.78 12.78 0 00-3.71-2.01c-1.38-.48-2.81-.71-4.28-.71-1.17 0-2.32.15-3.46.46-1.14.3-2.23.77-3.26 1.4zM541.85 170.92c.5-.63 1.07-1.25 1.7-1.86.63-.6 1.34-1.14 2.12-1.61.78-.48 1.65-.87 2.6-1.17.95-.29 2.02-.44 3.21-.44 2.21 0 4.16.38 5.85 1.15 1.69.76 3.11 1.8 4.26 3.13 1.14 1.32 2 2.87 2.59 4.65.58 1.78.87 3.69.87 5.72v18.32c0 .61-.15 1.07-.47 1.38-.31.3-.72.45-1.2.45h-2c-.67 0-1.09-.13-1.28-.4-.19-.27-.29-.72-.29-1.35v-18.4c0-1.08-.14-2.18-.44-3.31a8.854 8.854 0 00-1.45-3.05c-.68-.92-1.58-1.67-2.69-2.24-1.12-.58-2.48-.87-4.1-.87-1.03 0-2.09.18-3.18.55-1.1.37-2.1.92-3 1.64-.9.72-1.64 1.61-2.22 2.67-.58 1.06-.88 2.27-.88 3.64v19.94c0 .79-.4 1.18-1.19 1.18h-2.78c-.84 0-1.26-.39-1.26-1.18v-31.89c0-.36.11-.65.35-.86.23-.22.51-.33.83-.33h2.81c.37 0 .68.12.91.35.22.24.33.52.33.84v3.35zM642.25 196.65c-.52.63-1.06 1.19-1.63 1.68-.57.5-1.2.92-1.91 1.26-.72.34-1.52.6-2.42.78-.9.18-1.94.27-3.13.27-2.21 0-4.17-.38-5.86-1.15-1.69-.76-3.1-1.8-4.24-3.13-1.14-1.32-2.01-2.87-2.59-4.65-.59-1.78-.88-3.68-.88-5.71v-18.32c0-.61.16-1.07.47-1.38.32-.3.72-.46 1.2-.46h2c.66 0 1.09.14 1.28.41.19.27.28.72.28 1.35V186c0 1.07.16 2.17.45 3.3.3 1.12.78 2.15 1.46 3.06.67.92 1.56 1.67 2.68 2.24 1.11.58 2.48.87 4.1.87 1.02 0 2.06-.19 3.09-.56 1.04-.37 1.97-.91 2.81-1.63.83-.72 1.52-1.61 2.05-2.66.53-1.05.79-2.27.79-3.65v-19.94c0-.79.39-1.19 1.19-1.19h2.77c.85 0 1.27.4 1.27 1.19v31.89c0 .36-.12.64-.35.86-.23.22-.51.32-.83.32h-2.81c-.38 0-.67-.11-.9-.35-.22-.23-.34-.51-.34-.83v-2.27zM674.13 170.92c.5-.63 1.07-1.25 1.7-1.86.63-.6 1.34-1.14 2.12-1.61.78-.48 1.64-.87 2.6-1.17.95-.29 2.02-.44 3.21-.44 2.21 0 4.16.38 5.85 1.15 1.69.76 3.11 1.8 4.26 3.13 1.14 1.32 2 2.87 2.59 4.65.58 1.78.87 3.69.87 5.72v18.32c0 .61-.16 1.07-.47 1.38-.31.3-.72.45-1.21.45h-1.99c-.67 0-1.09-.13-1.28-.4-.19-.27-.29-.72-.29-1.35v-18.4c0-1.08-.14-2.18-.44-3.31a8.854 8.854 0 00-1.45-3.05c-.68-.92-1.58-1.67-2.69-2.24-1.12-.58-2.48-.87-4.1-.87-1.03 0-2.09.18-3.19.55-1.09.37-2.09.92-2.99 1.64-.9.72-1.64 1.61-2.22 2.67-.59 1.06-.88 2.27-.88 3.64v19.94c0 .79-.4 1.18-1.19 1.18h-2.78c-.84 0-1.27-.39-1.27-1.18v-31.89c0-.36.12-.65.35-.86.24-.22.52-.33.84-.33h2.81c.37 0 .68.12.9.35.23.24.34.52.34.84v3.35zM747.39 200.64c-.79 0-1.19-.39-1.19-1.17v-3.26a16.903 16.903 0 01-5.4 3.73c-2.05.9-4.28 1.35-6.67 1.35-1.6 0-3.15-.21-4.65-.64a17.25 17.25 0 01-4.23-1.79c-1.31-.78-2.51-1.71-3.59-2.78a18.35 18.35 0 01-2.8-3.59c-.78-1.32-1.38-2.73-1.8-4.24-.43-1.5-.64-3.06-.64-4.68 0-1.62.21-3.18.64-4.69.42-1.51 1.02-2.92 1.8-4.24.79-1.32 1.71-2.53 2.8-3.61a18.3 18.3 0 013.59-2.79c1.31-.79 2.71-1.39 4.21-1.81 1.49-.42 3.06-.64 4.67-.64 2.39 0 4.62.46 6.67 1.37 2.06.91 3.85 2.15 5.4 3.75v-13.54c0-.32.12-.6.34-.83.23-.24.52-.35.9-.35h2.81c.32 0 .6.1.83.32.24.22.36.5.36.86v42.09c0 .79-.43 1.18-1.27 1.18h-2.78zm-.92-17.09c0-1.67-.32-3.28-.97-4.83-.65-1.55-1.53-2.91-2.64-4.09a12.824 12.824 0 00-3.92-2.82c-1.51-.7-3.11-1.06-4.8-1.06s-3.27.36-4.75 1.06c-1.49.7-2.78 1.64-3.89 2.82a13.32 13.32 0 00-2.62 4.09c-.63 1.55-.96 3.16-.96 4.83 0 1.72.33 3.34.96 4.86a13.04 13.04 0 002.62 4.03c1.11 1.15 2.4 2.07 3.89 2.76 1.48.68 3.06 1.02 4.75 1.02s3.29-.34 4.8-1.02c1.5-.69 2.8-1.61 3.92-2.76 1.11-1.16 1.99-2.5 2.64-4.03.65-1.52.97-3.14.97-4.86zM831.01 192.79c.16-.14.34-.27.53-.4s.38-.19.57-.19c.27 0 .54.16.79.49.36.48.65.88.88 1.18.22.31.4.55.55.73.14.2.25.34.32.43.09.11.16.22.22.34.05.11.08.25.08.39 0 .2-.08.42-.23.64-.15.22-.42.48-.8.8-.77.61-1.57 1.17-2.41 1.66-.83.5-1.72.93-2.63 1.29-.92.37-1.88.65-2.9.85-1.01.19-2.09.29-3.23.29-1.6 0-3.14-.21-4.64-.64a17.64 17.64 0 01-4.21-1.8c-1.33-.79-2.53-1.72-3.62-2.8a18.449 18.449 0 01-2.82-3.59 17.55 17.55 0 01-1.84-4.23 17.02 17.02 0 01-.64-4.69c0-1.62.2-3.19.61-4.7.4-1.51.98-2.92 1.72-4.25.75-1.31 1.65-2.51 2.71-3.58 1.06-1.08 2.26-2.02 3.58-2.79a17.74 17.74 0 014.29-1.79c1.54-.42 3.16-.64 4.86-.64 1.35 0 2.69.15 4.02.46 1.33.3 2.61.75 3.83 1.34 1.23.58 2.38 1.3 3.45 2.17 1.07.87 2.02 1.86 2.87 2.97 1.15 1.55 2 3.32 2.56 5.3s.82 4.25.78 6.83c0 .85-.39 1.27-1.18 1.27h-28.44c.31 1.44.85 2.77 1.61 3.99.76 1.23 1.68 2.29 2.75 3.19 1.07.91 2.26 1.62 3.57 2.14 1.32.51 2.67.77 4.08.77.99 0 1.88-.1 2.68-.29.8-.19 1.53-.44 2.19-.75.66-.32 1.26-.68 1.82-1.08.55-.41 1.09-.82 1.61-1.25l.06-.06zm-14.79-19.96c-1.36.92-2.54 2.07-3.53 3.46-.99 1.4-1.66 2.93-2.02 4.61h24.38c-.19-1.5-.65-2.85-1.38-4.08-.73-1.22-1.65-2.26-2.74-3.13a12.78 12.78 0 00-3.71-2.01c-1.37-.48-2.8-.71-4.28-.71-1.17 0-2.32.15-3.46.46-1.14.3-2.23.77-3.26 1.4zM862.89 167.38c.34.9.78 2.04 1.32 3.43.54 1.38 1.12 2.88 1.75 4.48.63 1.62 1.29 3.28 1.96 4.99.68 1.71 1.33 3.33 1.95 4.87.62 1.55 1.18 2.96 1.7 4.23.51 1.26.91 2.26 1.22 3 .29-.74.68-1.74 1.18-3.01.51-1.27 1.07-2.68 1.67-4.24.6-1.55 1.23-3.19 1.9-4.9.66-1.71 1.31-3.37 1.93-4.98.62-1.61 1.2-3.11 1.73-4.5.53-1.38.96-2.52 1.3-3.42.12-.31.3-.55.54-.73.23-.18.53-.27.89-.27h2.99c.8 0 1.19.31 1.19.94 0 .06-.01.12-.03.19-.01.07-.04.16-.08.25-.03.09-.06.18-.08.29l-12.81 31.65c-.06.09-.1.18-.15.3-.04.12-.11.23-.21.33-.1.09-.24.18-.4.26-.16.07-.38.1-.67.1h-1.78c-.29 0-.51-.03-.68-.1-.16-.08-.28-.17-.38-.26-.1-.1-.17-.21-.22-.33-.04-.12-.1-.21-.15-.3l-12.98-31.59c-.02-.06-.03-.12-.05-.19-.04-.15-.06-.33-.06-.54 0-.63.42-.95 1.24-.95h2.84c.36 0 .65.09.89.27.23.18.41.43.54.73zM931.35 192.79c.16-.14.34-.27.53-.4s.38-.19.57-.19c.27 0 .53.16.79.49.36.48.65.88.88 1.18.22.31.4.55.55.73.14.2.25.34.32.43.09.11.16.22.21.34.06.11.09.25.09.39 0 .2-.08.42-.23.64-.15.22-.42.48-.8.8-.77.61-1.57 1.17-2.41 1.66-.83.5-1.72.93-2.63 1.29-.92.37-1.88.65-2.9.85-1.02.19-2.09.29-3.23.29-1.6 0-3.15-.21-4.64-.64a17.64 17.64 0 01-4.21-1.8c-1.33-.79-2.53-1.72-3.62-2.8a18.449 18.449 0 01-2.82-3.59c-.8-1.32-1.41-2.72-1.84-4.23-.43-1.51-.65-3.07-.65-4.69 0-1.62.21-3.19.62-4.7.4-1.51.98-2.92 1.72-4.25.75-1.31 1.65-2.51 2.71-3.58 1.06-1.08 2.26-2.02 3.58-2.79a17.74 17.74 0 014.29-1.79c1.53-.42 3.15-.64 4.86-.64 1.35 0 2.69.15 4.02.46 1.33.3 2.61.75 3.83 1.34 1.23.58 2.38 1.3 3.45 2.17 1.07.87 2.02 1.86 2.87 2.97 1.15 1.55 2 3.32 2.56 5.3s.82 4.25.78 6.83c0 .85-.39 1.27-1.19 1.27h-28.43c.31 1.44.85 2.77 1.61 3.99.76 1.23 1.68 2.29 2.75 3.19 1.07.91 2.26 1.62 3.57 2.14 1.31.51 2.67.77 4.07.77.99 0 1.89-.1 2.69-.29.8-.19 1.53-.44 2.19-.75.65-.32 1.26-.68 1.81-1.08.56-.41 1.1-.82 1.62-1.25l.06-.06zm-14.79-19.96c-1.36.92-2.54 2.07-3.53 3.46-.99 1.4-1.66 2.93-2.02 4.61h24.38c-.19-1.5-.65-2.85-1.38-4.08-.73-1.22-1.65-2.26-2.74-3.13a12.78 12.78 0 00-3.71-2.01c-1.37-.48-2.8-.71-4.28-.71-1.17 0-2.32.15-3.46.46-1.14.3-2.23.77-3.26 1.4zM966.76 170.92c.5-.63 1.07-1.25 1.7-1.86.63-.6 1.34-1.14 2.12-1.61.78-.48 1.65-.87 2.6-1.17.95-.29 2.02-.44 3.21-.44 2.21 0 4.16.38 5.85 1.15 1.69.76 3.12 1.8 4.26 3.13 1.14 1.32 2 2.87 2.59 4.65.58 1.78.87 3.69.87 5.72v18.32c0 .61-.15 1.07-.47 1.38-.31.3-.72.45-1.2.45h-2c-.66 0-1.09-.13-1.28-.4-.19-.27-.28-.72-.28-1.35v-18.4c0-1.08-.15-2.18-.45-3.31a8.854 8.854 0 00-1.45-3.05c-.68-.92-1.58-1.67-2.69-2.24-1.12-.58-2.48-.87-4.1-.87-1.03 0-2.09.18-3.18.55-1.1.37-2.1.92-3 1.64-.9.72-1.64 1.61-2.22 2.67-.58 1.06-.88 2.27-.88 3.64v19.94c0 .79-.4 1.18-1.19 1.18h-2.78c-.84 0-1.26-.39-1.26-1.18v-31.89c0-.36.11-.65.35-.86.23-.22.51-.33.83-.33h2.81c.38 0 .68.12.91.35.22.24.33.52.33.84v3.35zM1019.38 201.02c-.83 0-1.67-.1-2.51-.29-.83-.2-1.59-.54-2.25-1.04-.67-.49-1.22-1.17-1.64-2.02-.42-.86-.64-1.94-.64-3.28v-23.37h-3.13c-.45 0-.78-.07-1-.2-.21-.14-.32-.43-.32-.91v-2.52c0-.48.11-.76.32-.88.22-.12.55-.18 1-.18h3.13v-5.75c0-.3.07-.53.19-.66.13-.14.34-.25.65-.34.11-.03.33-.08.66-.12.34-.05.68-.1 1.04-.17.43-.07.9-.15 1.4-.24.31-.04.55-.02.73.05.18.07.31.18.39.32.09.15.13.31.15.5.02.19.03.39.03.61v5.8h3.75c.41 0 .71.09.9.27.19.18.28.51.28.98v2.14c0 .47-.09.81-.28 1.01-.19.2-.49.29-.9.29h-3.75v23.32c0 .63.15 1.07.45 1.32.32.25.74.37 1.29.37.41 0 .75.13 1.03.38.27.25.41.6.41 1.05v2.21c0 .42-.13.75-.38.99-.25.25-.58.36-1 .36zM1039.34 193.95c-.09-.27-.16-.49-.19-.66a.678.678 0 01.02-.43c.04-.12.11-.22.21-.31.1-.09.24-.18.42-.27l2.55-1.19c.45-.18.8-.16 1.05.07.25.22.45.5.6.82.27.71.69 1.32 1.27 1.85.59.53 1.22.97 1.9 1.31.67.34 1.37.6 2.07.77.7.17 1.3.26 1.8.26.68 0 1.43-.1 2.26-.3.82-.2 1.6-.5 2.32-.92.73-.41 1.34-.95 1.84-1.61.49-.65.73-1.43.73-2.33 0-.97-.23-1.75-.7-2.34-.46-.6-1.07-1.09-1.81-1.48-.75-.38-1.59-.69-2.51-.92-.93-.24-1.85-.48-2.76-.73-1.61-.43-3.06-.97-4.32-1.59-1.27-.62-2.35-1.34-3.24-2.15a8.518 8.518 0 01-2.03-2.81c-.47-1.05-.7-2.23-.7-3.54 0-1.44.28-2.75.84-3.94.55-1.19 1.33-2.2 2.32-3.05 1-.84 2.2-1.5 3.58-1.97 1.4-.47 2.94-.7 4.63-.7 1.38 0 2.57.13 3.57.38.99.25 1.88.62 2.65 1.11.77.5 1.48 1.11 2.13 1.84.65.73 1.32 1.57 2.02 2.52.22.36.34.67.35.93.02.26-.14.52-.48.77l-2.11 1.59c-.41.24-.72.3-.94.19-.22-.1-.45-.31-.7-.62-.42-.48-.82-.95-1.22-1.4-.39-.45-.83-.85-1.34-1.2-.5-.36-1.07-.63-1.71-.84-.63-.21-1.4-.31-2.27-.31-.79 0-1.55.09-2.29.27-.74.18-1.4.47-1.98.87-.58.39-1.05.89-1.4 1.49-.35.6-.53 1.32-.53 2.15 0 .63.22 1.2.65 1.73.43.53.98 1.02 1.65 1.45.66.43 1.38.8 2.17 1.11.8.3 1.56.55 2.3.73 1.71.39 3.26.9 4.67 1.51 1.41.61 2.62 1.34 3.63 2.18 1 .85 1.78 1.83 2.34 2.95.55 1.13.83 2.4.83 3.82 0 1.57-.3 2.97-.92 4.22a9.39 9.39 0 01-2.59 3.18c-1.1.88-2.41 1.55-3.94 2.02-1.53.47-3.19.7-4.98.7-1.14 0-2.3-.14-3.48-.43-1.2-.29-2.33-.73-3.39-1.32a12.15 12.15 0 01-2.87-2.24c-.87-.9-1.52-1.96-1.97-3.19z"/><path fill="#5FA6D6" d="M365.1 37.91c.89.59 1.33 1.25 1.33 1.97 0 .47-.17.91-.51 1.34l-1.71 2.16c-.3.34-.58.62-.85.83-.28.21-.6.32-.94.32-.63 0-1.48-.38-2.54-1.15-3.69-2.67-7.57-4.77-11.67-6.28-4.09-1.5-8.38-2.24-12.83-2.24-3.9 0-7.64.5-11.2 1.52-3.56 1.02-6.87 2.44-9.95 4.29a42.43 42.43 0 00-8.38 6.59c-2.5 2.55-4.64 5.35-6.42 8.4-1.79 3.06-3.16 6.3-4.14 9.74-.98 3.44-1.46 6.96-1.46 10.56 0 3.65.53 7.22 1.57 10.72 1.04 3.49 2.48 6.78 4.32 9.86 1.85 3.07 4.03 5.9 6.58 8.46 2.54 2.57 5.32 4.8 8.34 6.66 3.01 1.87 6.21 3.31 9.6 4.35 3.4 1.04 6.88 1.57 10.44 1.57 2.16 0 4.41-.21 6.72-.64 2.32-.42 4.58-1.04 6.83-1.84 2.25-.81 4.46-1.8 6.6-2.97 2.14-1.17 4.1-2.48 5.88-3.97.51-.38 1.03-.57 1.59-.57.89 0 1.67.53 2.35 1.59l.96 1.53c.29.51.44 1.04.44 1.59 0 .93-.42 1.72-1.27 2.35a49.47 49.47 0 01-13.75 7.49c-5 1.8-10.35 2.69-16.03 2.69-4.41 0-8.68-.57-12.81-1.71-4.14-1.15-8-2.78-11.59-4.9a50.333 50.333 0 01-9.84-7.62 47.038 47.038 0 01-7.61-9.86c-2.12-3.63-3.76-7.53-4.94-11.69-1.17-4.16-1.77-8.48-1.77-13 0-4.41.58-8.68 1.74-12.81 1.15-4.16 2.8-8.02 4.92-11.61 2.15-3.58 4.69-6.85 7.64-9.8 2.95-2.94 6.24-5.47 9.86-7.57 3.63-2.1 7.51-3.73 11.67-4.9 4.16-1.16 8.49-1.76 12.98-1.76 5.47 0 10.78.89 15.91 2.67 5.13 1.81 9.78 4.33 13.94 7.64zM390.07 83.28c0-3.82.51-7.51 1.51-11.07.99-3.57 2.39-6.89 4.22-9.99 1.82-3.1 4.01-5.92 6.55-8.46 2.57-2.55 5.39-4.74 8.49-6.56a42.14 42.14 0 019.96-4.24c3.55-1 7.22-1.49 11.06-1.49 3.81 0 7.48.49 11.03 1.49 3.56 1 6.87 2.42 9.97 4.24 3.09 1.82 5.93 4.01 8.5 6.56 2.57 2.54 4.77 5.36 6.6 8.46 1.82 3.1 3.22 6.42 4.22 9.99 1 3.56 1.51 7.25 1.51 11.07 0 3.82-.51 7.51-1.51 11.07-1 3.57-2.4 6.9-4.22 9.99-1.83 3.1-4.03 5.92-6.6 8.47a43.406 43.406 0 01-8.5 6.55 41.18 41.18 0 01-9.97 4.22c-3.55 1-7.22 1.51-11.03 1.51-3.84 0-7.51-.51-11.06-1.51-3.54-.99-6.87-2.39-9.96-4.22-3.1-1.82-5.92-4.01-8.49-6.55a42.348 42.348 0 01-6.55-8.47c-1.83-3.09-3.23-6.42-4.22-9.99-1-3.56-1.51-7.25-1.51-11.07zm7.64 0c0 3.1.4 6.09 1.2 8.99.81 2.89 1.96 5.63 3.42 8.19 1.46 2.57 3.22 4.92 5.28 7.05 2.06 2.14 4.35 3.98 6.87 5.49 2.53 1.53 5.22 2.71 8.08 3.56 2.87.85 5.86 1.27 9 1.27 4.71 0 9.16-.89 13.34-2.69 4.18-1.8 7.83-4.26 10.97-7.38 3.14-3.1 5.62-6.75 7.44-10.92 1.83-4.16 2.74-8.64 2.74-13.43 0-4.67-.89-9.1-2.67-13.3-1.79-4.22-4.2-7.91-7.28-11.09-3.08-3.19-6.68-5.71-10.82-7.6-4.13-1.89-8.57-2.82-13.28-2.82-4.7 0-9.14.91-13.32 2.76-4.18 1.84-7.82 4.35-10.92 7.53-3.1 3.18-5.54 6.85-7.34 11.05-1.8 4.2-2.71 8.63-2.71 13.34zM530.58 49.24c-2.95 0-5.77.51-8.48 1.52a23.478 23.478 0 00-7.28 4.33c-2.12 1.87-3.86 4.09-5.22 6.7-1.35 2.61-2.12 5.52-2.29 8.7V121.4c0 1.36-.66 2.03-1.97 2.03h-3.31c-1.4 0-2.1-.67-2.1-2.03V45.04c0-.72.23-1.28.72-1.64.49-.36 1.06-.53 1.74-.53h2.59c.76 0 1.34.22 1.74.66.4.45.59 1.02.59 1.7l.07 9.61c1.48-2.04 3.05-3.86 4.7-5.48 1.66-1.61 3.44-2.99 5.37-4.13 1.93-1.15 4.01-2.02 6.24-2.61 2.22-.6 4.66-.89 7.34-.89 6.36 0 11.79 1.5 16.29 4.52 4.47 3.01 7.97 7.14 10.48 12.43 1.18-2.85 2.71-5.35 4.58-7.47 1.86-2.12 3.99-3.88 6.32-5.28 2.33-1.4 4.86-2.44 7.57-3.14 2.72-.7 5.52-1.06 8.4-1.06 4.07 0 7.83.7 11.24 2.08 3.42 1.38 6.41 3.24 8.98 5.62 2.56 2.37 4.66 5.17 6.27 8.42 1.62 3.22 2.68 6.7 3.19 10.43.19 1.45.29 2.91.31 4.4.05 1.48.07 2.96.07 4.45v43.44c0 .98-.24 1.7-.7 2.16-.47.47-1.08.7-1.85.7h-2.42c-.97 0-1.61-.21-1.93-.63-.32-.43-.48-1.13-.48-2.1V72.91c-.13-2.97-.73-5.9-1.79-8.76-1.06-2.87-2.56-5.39-4.51-7.59-1.96-2.21-4.33-3.99-7.15-5.35-2.82-1.36-6.05-2.04-9.65-2.04-2.93 0-5.65.47-8.17 1.4-2.52.94-4.77 2.23-6.75 3.89-1.97 1.65-3.62 3.6-4.94 5.87-1.31 2.27-2.18 4.75-2.61 7.42-.51 2.93-.76 6.01-.76 9.23v43.65c0 .94-.23 1.64-.7 2.1-.47.47-1.06.7-1.82.7h-2.4c-.98 0-1.61-.21-1.95-.63-.34-.43-.51-1.13-.51-2.1V76.98c0-1.36-.02-2.76-.09-4.18-.06-1.42-.21-2.82-.42-4.22-.38-2.63-1.19-5.11-2.42-7.44a22.206 22.206 0 00-4.77-6.16c-1.98-1.76-4.24-3.16-6.83-4.2-2.59-1.03-5.43-1.54-8.53-1.54zM702.83 114.4l-.13-3.95c-1.4 2.17-2.99 4.12-4.77 5.86a29.827 29.827 0 01-5.94 4.45c-2.17 1.23-4.54 2.17-7.09 2.82-2.54.66-5.3 1-8.29 1-4.92 0-9.46-.89-13.58-2.67-4.11-1.78-7.68-4.2-10.65-7.26-2.97-3.05-5.3-6.66-6.98-10.79-1.67-4.14-2.52-8.55-2.52-13.26V45.16c0-.93.23-1.63.7-2.1.47-.46 1.08-.7 1.89-.7h2.4c.97 0 1.61.22 1.93.64.31.42.46 1.12.46 2.1V91c.09 3.4.77 6.66 2.04 9.82 1.27 3.14 3.07 5.94 5.36 8.4 2.3 2.49 5.08 4.44 8.32 5.9 3.27 1.46 6.94 2.21 11.01 2.21 3.35 0 6.58-.64 9.63-1.89 3.07-1.25 5.79-2.99 8.17-5.26 2.37-2.25 4.3-4.92 5.74-8.06 1.45-3.12 2.21-6.56 2.3-10.29V44.4c0-1.36.67-2.04 2.01-2.04h3.29c1.38 0 2.08.68 2.08 2.04v76.36c0 1.78-.79 2.67-2.34 2.67h-2.58c-1.64 0-2.46-.76-2.46-2.29v-6.74zM741.35 45.36c0-.77.23-1.36.68-1.77.45-.4 1.02-.59 1.74-.59h2.61c.76 0 1.36.21 1.76.66.4.44.59 1.02.59 1.7v9.35c1.83-2.76 3.88-5.03 6.18-6.79 2.29-1.76 4.64-3.14 7.06-4.13 2.42-1 4.81-1.68 7.17-2.04 2.35-.36 4.52-.53 6.51-.53 4.88 0 9.33.89 13.36 2.67 4.03 1.78 7.47 4.22 10.31 7.32 2.84 3.1 5.05 6.7 6.62 10.82 1.57 4.11 2.35 8.5 2.35 13.17v45.43c0 .94-.23 1.64-.7 2.1-.46.47-1.08.7-1.84.7h-2.36c-.97 0-1.63-.21-1.97-.63-.34-.43-.51-1.13-.51-2.1V75.05c-.12-3.31-.78-6.53-1.97-9.69-1.19-3.16-2.86-5.96-5.03-8.42-2.16-2.46-4.81-4.46-7.95-5.96-3.14-1.51-6.73-2.25-10.76-2.25-3.26 0-6.44.59-9.56 1.8a27.568 27.568 0 00-8.38 5.09c-2.46 2.19-4.45 4.82-6 7.85-1.55 3.05-2.4 6.43-2.53 10.12v47.81c0 1.36-.63 2.03-1.89 2.03h-3.35c-1.33 0-2.01-.67-2.01-2.03v-17.63c-.09-.13-.13-.36-.13-.7V45.36zM917.39 121.4c0 1.36-.68 2.03-2.04 2.03h-3.3c-1.36 0-2.04-.67-2.04-2.03v-10.65l-.25-4.71c-.85 1.4-1.77 2.84-2.74 4.29-.98 1.44-2.02 2.67-3.12 3.69-3.77 3.56-8.02 6.3-12.75 8.21-4.73 1.9-9.73 2.86-15.04 2.86-3.79 0-7.48-.51-11.03-1.51-3.54-.99-6.85-2.39-9.94-4.22-3.1-1.82-5.92-4.01-8.47-6.55-2.52-2.57-4.71-5.37-6.53-8.44a41.29 41.29 0 01-4.24-9.97c-1-3.57-1.49-7.26-1.49-11.1 0-3.81.49-7.51 1.49-11.07.99-3.56 2.42-6.89 4.24-9.99 1.82-3.1 4.01-5.92 6.53-8.48 2.55-2.55 5.37-4.74 8.47-6.56 3.09-1.82 6.4-3.22 9.94-4.22 3.55-1 7.24-1.51 11.03-1.51 2.68 0 5.29.28 7.83.83 2.55.55 5.01 1.34 7.38 2.33 2.38 1 4.63 2.19 6.77 3.59 2.14 1.42 4.11 2.97 5.94 4.66 1.14 1.19 2.14 2.38 2.99 3.59.85 1.21 1.84 2.61 2.99 4.18V19.71c0-.3.11-.55.32-.76.21-.21.49-.32.82-.32l4.52-.07c1.15 0 1.72.58 1.72 1.72V121.4zM842.3 83.28c0 4.67.87 9.08 2.63 13.24 1.76 4.18 4.16 7.85 7.21 10.99 3.06 3.16 6.62 5.66 10.72 7.52 4.07 1.87 8.44 2.8 13.1 2.8 4.71 0 9.15-.89 13.35-2.69 4.2-1.8 7.87-4.26 11.01-7.38 3.16-3.1 5.64-6.77 7.46-10.95 1.83-4.2 2.74-8.65 2.74-13.4 0-4.67-.89-9.1-2.67-13.3-1.79-4.22-4.2-7.91-7.3-11.09-3.1-3.19-6.72-5.71-10.86-7.6-4.16-1.89-8.57-2.82-13.28-2.82-4.71 0-9.12.91-13.28 2.76-4.13 1.84-7.76 4.35-10.82 7.53-3.07 3.18-5.51 6.85-7.31 11.05-1.81 4.2-2.7 8.63-2.7 13.34zM1006.32 114.4l-.13-3.95c-1.4 2.17-2.99 4.12-4.77 5.86a29.827 29.827 0 01-5.94 4.45c-2.17 1.23-4.54 2.17-7.09 2.82-2.54.66-5.3 1-8.29 1-4.92 0-9.46-.89-13.58-2.67-4.11-1.78-7.68-4.2-10.64-7.26-2.97-3.05-5.31-6.66-6.98-10.79-1.68-4.14-2.53-8.55-2.53-13.26V45.16c0-.93.24-1.63.7-2.1.47-.46 1.09-.7 1.89-.7h2.4c.97 0 1.61.22 1.93.64.32.42.46 1.12.46 2.1V91c.09 3.4.77 6.66 2.04 9.82 1.27 3.14 3.08 5.94 5.37 8.4 2.29 2.49 5.07 4.44 8.31 5.9 3.27 1.46 6.94 2.21 11.01 2.21 3.35 0 6.58-.64 9.63-1.89 3.08-1.25 5.79-2.99 8.17-5.26 2.37-2.25 4.3-4.92 5.75-8.06 1.44-3.12 2.2-6.56 2.29-10.29V44.4c0-1.36.68-2.04 2.01-2.04h3.29c1.38 0 2.08.68 2.08 2.04v76.36c0 1.78-.79 2.67-2.33 2.67h-2.59c-1.64 0-2.46-.76-2.46-2.29v-6.74zM1038.67 106.63a4.22 4.22 0 01-.19-.61c-.04-.19-.06-.36-.06-.53 0-.55.14-.95.44-1.21.3-.25.68-.49 1.15-.7l2.48-1.08c.08-.04.25-.09.49-.11.23-.02.38-.02.46-.02.34 0 .64.19.89.57.26.39.49.83.7 1.36.22.53.43 1.11.62 1.72.19.61.4 1.17.66 1.63.8 1.74 1.97 3.25 3.5 4.54 1.52 1.3 3.18 2.36 4.96 3.18 1.78.83 3.61 1.45 5.45 1.85 1.85.4 3.52.61 5.05.61 1.91 0 4.07-.29 6.47-.86 2.4-.58 4.64-1.47 6.75-2.7 2.1-1.23 3.85-2.84 5.3-4.84 1.44-1.99 2.16-4.43 2.16-7.31 0-2.59-.64-4.84-1.91-6.73-1.27-1.88-2.9-3.48-4.9-4.79-1.99-1.32-4.24-2.4-6.74-3.25-2.51-.84-4.99-1.55-7.45-2.1-3.14-.76-6.17-1.78-9.1-3.05-2.93-1.27-5.51-2.82-7.76-4.62-2.25-1.81-4.05-3.89-5.41-6.24-1.36-2.35-2.04-4.99-2.04-7.91 0-3.35.62-6.39 1.83-9.1 1.21-2.72 2.9-5.05 5.11-6.98 2.23-1.93 4.88-3.42 7.98-4.46 3.09-1.03 6.53-1.54 10.32-1.54 3.1 0 5.95.38 8.53 1.16 2.59.79 4.94 1.91 7.02 3.35 2.08 1.45 3.88 3.19 5.41 5.24 1.53 2.06 2.8 4.35 3.82 6.85l-.06-.06c.25.38.38.7.38.96 0 .38-.17.74-.51 1.1-.34.36-.74.7-1.21 1-.47.29-.91.53-1.36.7-.44.17-.8.25-1.06.25-.46 0-.83-.08-1.08-.25-.25-.17-.49-.41-.68-.7-.19-.3-.38-.68-.57-1.13-.19-.44-.42-.91-.72-1.42-1.74-2.84-4.14-5.2-7.15-7.04-3.01-1.85-6.62-2.76-10.84-2.76-2.29 0-4.48.3-6.6.89-2.1.59-3.96 1.49-5.6 2.69-1.63 1.21-2.92 2.74-3.88 4.59-.95 1.84-1.44 4.01-1.44 6.47 0 2.12.64 4 1.91 5.66 1.27 1.65 2.86 3.08 4.75 4.29 1.89 1.2 3.92 2.2 6.09 2.99 2.16.78 4.13 1.4 5.92 1.82.33.09.55.13.63.15.09.02.15.04.19.04 3.88.89 7.41 2.04 10.59 3.46 3.18 1.42 5.89 3.12 8.16 5.07 2.25 1.95 3.99 4.18 5.22 6.7 1.23 2.53 1.85 5.39 1.85 8.57 0 3.65-.77 6.89-2.29 9.76a22.001 22.001 0 01-6.22 7.25c-2.61 1.97-5.62 3.48-9.04 4.52-3.43 1.04-6.99 1.57-10.75 1.57-3.14 0-6.15-.4-9.03-1.21-2.89-.81-5.52-1.99-7.87-3.56-2.36-1.57-4.39-3.5-6.09-5.79-1.7-2.3-2.91-4.92-3.63-7.9z"/></g></svg>