<svg xmlns="http://www.w3.org/2000/svg" viewBox="0 0 250 250"><path fill="#D0D0D0" d="M90.1 167.8c-10 0-18.9-6.4-22.1-15.9l-.2-.7c-.8-2.5-1.1-4.6-1.1-6.8v-42.6l-15.2 50.6c-2 7.4 2.5 15.2 9.9 17.2l96.6 25.9c1.2.3 2.4.5 3.6.5 6.2 0 11.9-4.1 13.5-10.2l5.6-17.9H90.1zM107.2 102.2c6.9 0 12.5-5.6 12.5-12.5s-5.6-12.5-12.5-12.5-12.5 5.6-12.5 12.5 5.7 12.5 12.5 12.5z"/><path fill="#D0D0D0" d="M185.4 58.5H91.6c-8.6 0-15.6 7-15.6 15.6v68.8c0 8.6 7 15.6 15.6 15.6h93.8c8.6 0 15.6-7 15.6-15.6V74.1c0-8.6-7-15.6-15.6-15.6zM91.6 71h93.8c1.7 0 3.1 1.4 3.1 3.1v44.4l-19.7-23c-2.1-2.5-5.1-3.8-8.4-3.8-3.2 0-6.3 1.5-8.3 3.9l-23.2 27.9-7.6-7.5c-4.3-4.3-11.2-4.3-15.5 0l-17.3 17.2v-59c0-1.8 1.4-3.2 3.1-3.2z"/><path fill="none" d="M0 0h250v250H0z"/></svg>