<?xml version="1.0" standalone="no"?>
<!DOCTYPE svg PUBLIC "-//W3C//DTD SVG 20010904//EN"
 "http://www.w3.org/TR/2001/REC-SVG-20010904/DTD/svg10.dtd">
<svg version="1.0" xmlns="http://www.w3.org/2000/svg"
 width="500.000000pt" height="500.000000pt" viewBox="0 0 500.000000 500.000000"
 preserveAspectRatio="xMidYMid meet">
<metadata>
Created by potrace 1.11, written by Peter Selinger 2001-2013
</metadata>
<g transform="translate(0.000000,500.000000) scale(0.100000,-0.100000)"
fill="#000000" stroke="none">
<path d="M2220 4985 c-386 -49 -704 -158 -1021 -350 -495 -301 -887 -791
-1066 -1335 -50 -150 -100 -346 -91 -355 5 -5 420 113 646 184 89 28 173 51
185 51 12 0 38 -9 57 -20 71 -41 184 -92 258 -116 82 -26 294 -81 352 -90 19
-3 38 -8 42 -10 4 -3 10 8 14 23 4 15 27 77 51 137 83 209 212 423 372 616 75
91 320 330 426 416 269 217 624 425 945 554 189 76 184 71 98 108 -111 46
-271 100 -377 127 -100 25 -124 29 -231 45 -36 6 -78 13 -95 16 -62 11 -472
11 -565 -1z"/>
<path d="M3565 4684 c-156 -69 -346 -168 -463 -239 -370 -226 -670 -513 -835
-800 -113 -195 -165 -366 -174 -573 l-6 -133 44 17 c93 36 208 93 299 149 143
87 213 125 236 125 11 0 78 -11 148 -25 107 -21 267 -49 397 -71 15 -2 67 -6
117 -9 77 -4 105 -1 176 20 162 47 578 213 711 284 31 17 65 28 82 26 48 -5
114 -39 198 -103 97 -74 97 -73 325 -282 145 -132 139 -128 134 -88 -7 44 -61
249 -84 318 -119 351 -326 687 -585 945 -170 171 -239 228 -410 342 -83 55
-216 133 -226 133 -2 0 -40 -17 -84 -36z"/>
<path d="M19 2750 c-5 -4 -12 -50 -15 -103 l-5 -97 758 2 758 3 1 26 c1 14 4
44 7 65 4 21 9 55 12 74 l6 35 -757 0 c-415 0 -760 -2 -765 -5z"/>
<path d="M2134 2728 c3 -16 20 -62 37 -103 l31 -75 1400 0 1400 0 -6 97 c-4
53 -9 99 -12 102 -3 3 -647 6 -1431 6 l-1425 0 6 -27z"/>
<path d="M14 2238 c7 -78 14 -129 21 -165 l5 -23 756 0 c715 0 755 1 751 18
-13 46 -27 143 -31 212 l-2 25 -753 3 -753 2 6 -72z"/>
<path d="M2370 2301 c0 -10 171 -179 224 -221 l39 -30 1163 0 1164 0 5 23 c3
12 11 70 18 130 l13 107 -1313 0 c-725 0 -1313 -4 -1313 -9z"/>
<path d="M110 1766 c0 -11 56 -169 80 -225 l28 -66 781 0 c430 0 781 2 781 5
0 3 -25 51 -55 105 -30 55 -62 119 -71 143 l-17 42 -763 0 c-420 0 -764 -2
-764 -4z"/>
<path d="M3130 1766 c0 -14 387 -150 487 -171 10 -2 54 -13 98 -24 75 -19 256
-54 335 -65 211 -29 390 -45 592 -50 l127 -4 22 47 c32 68 98 247 99 269 0 1
-396 2 -880 2 -484 0 -880 -2 -880 -4z"/>
<path d="M390 1163 c0 -17 191 -275 223 -301 13 -11 191 -13 887 -13 480 -1
874 1 876 4 2 2 -32 32 -77 66 -44 35 -124 105 -178 156 l-96 93 -818 0 c-449
0 -817 -2 -817 -5z"/>
<path d="M1014 491 c19 -29 314 -205 441 -263 78 -35 264 -106 295 -113 8 -2
47 -13 85 -25 77 -22 197 -48 260 -56 22 -3 46 -7 53 -10 77 -25 631 -24 705
1 7 2 30 6 52 9 22 2 60 9 85 15 25 5 57 12 71 14 115 21 380 114 520 183 l94
47 -145 37 c-156 41 -311 91 -434 139 l-77 31 -1005 0 c-559 0 -1003 -4 -1000
-9z"/>
</g>
</svg>
